<!DOCTYPE svg PUBLIC "-//W3C//DTD SVG 20010904//EN" "http://www.w3.org/TR/2001/REC-SVG-20010904/DTD/svg10.dtd">
<svg version="1.0" xmlns="http://www.w3.org/2000/svg" width="1600px" height="900px" viewBox="0 0 16000 9000" preserveAspectRatio="xMidYMid meet">
<g id="layer101" fill="#1eb640" stroke="none">
 <path d="M6880 2925 c0 -3 2 -5 5 -5 3 0 5 2 5 5 0 3 -2 5 -5 5 -3 0 -5 -2 -5 -5z"/>
 <path d="M7100 2925 c0 -3 2 -5 5 -5 3 0 5 2 5 5 0 3 -2 5 -5 5 -3 0 -5 -2 -5 -5z"/>
 <path d="M6900 2845 c0 -3 2 -5 5 -5 3 0 5 2 5 5 0 3 -2 5 -5 5 -3 0 -5 -2 -5 -5z"/>
 <path d="M1902 2303 c-29 -11 -32 -52 -12 -168 11 -63 29 -172 39 -241 11 -70 24 -131 30 -137 16 -16 14 24 -4 119 -8 44 -23 133 -33 200 l-18 121 32 -7 c20 -5 37 -3 44 4 8 8 13 7 19 -3 5 -8 16 -11 25 -8 8 3 18 2 21 -3 11 -18 34 -10 50 18 16 27 16 27 11 2 -3 -14 -1 -32 4 -40 13 -22 50 15 50 52 0 15 5 28 10 28 27 0 -13 -203 -76 -387 -13 -39 -24 -80 -24 -90 1 -17 2 -17 16 2 8 11 20 38 26 60 6 22 21 74 33 115 12 41 33 126 45 188 24 125 20 148 -29 139 -13 -3 -33 -1 -43 4 -10 5 -26 13 -37 18 -22 11 -160 22 -179 14z m95 -40 c-4 -3 -7 0 -7 7 0 7 3 10 7 7 3 -4 3 -10 0 -14z m-70 -35 c-3 -7 -5 -2 -5 12 0 14 2 19 5 13 2 -7 2 -19 0 -25z m193 11 c0 -5 -4 -9 -10 -9 -5 0 -10 7 -10 16 0 8 5 12 10 9 6 -3 10 -10 10 -16z m-153 -21 c-3 -7 -5 -2 -5 12 0 14 2 19 5 13 2 -7 2 -19 0 -25z m59 -5 c-11 -11 -19 6 -11 24 8 17 8 17 12 0 3 -10 2 -21 -1 -24z m46 -15 c-7 -7 -12 -8 -12 -2 0 6 3 14 7 17 3 4 9 5 12 2 2 -3 -1 -11 -7 -17z"/>
 <path d="M10545 2154 c-8 -9 -13 -25 -10 -37 17 -75 26 -127 39 -212 14 -91 21 -114 30 -104 2 2 -7 60 -20 129 -30 161 -30 157 6 162 17 3 33 1 35 -2 7 -12 59 -9 67 4 5 7 8 5 8 -6 0 -27 29 -21 36 7 10 42 25 28 18 -17 -7 -43 -43 -169 -63 -221 -14 -35 -14 -55 -2 -42 15 16 72 214 78 270 l5 52 -42 7 c-24 4 -48 10 -54 14 -23 14 -115 11 -131 -4z m85 -9 c0 -3 -2 -5 -5 -5 -3 0 -5 2 -5 5 0 3 2 5 5 5 3 0 5 -2 5 -5z m37 -12 c-4 -3 -7 0 -7 7 0 7 3 10 7 7 3 -4 3 -10 0 -14z m-87 -8 c0 -3 -2 -5 -5 -5 -3 0 -5 2 -5 5 0 3 2 5 5 5 3 0 5 -2 5 -5z m30 0 c0 -3 -2 -5 -5 -5 -3 0 -5 2 -5 5 0 3 2 5 5 5 3 0 5 -2 5 -5z m37 -12 c-4 -3 -7 0 -7 7 0 7 3 10 7 7 3 -4 3 -10 0 -14z m60 0 c-4 -3 -7 0 -7 7 0 7 3 10 7 7 3 -4 3 -10 0 -14z m-27 -8 c0 -3 -2 -5 -5 -5 -3 0 -5 2 -5 5 0 3 2 5 5 5 3 0 5 -2 5 -5z"/>
 </g>
<g id="layer102" fill="#3f43b2" stroke="none">
 <path d="M7766 4959 c-14 -17 -26 -38 -26 -47 0 -9 14 -93 30 -187 17 -93 40 -235 51 -315 29 -203 41 -259 56 -265 20 -7 26 19 14 57 -6 18 -13 53 -16 78 -10 93 -57 384 -82 510 -5 26 -4 26 56 23 53 -2 60 0 66 18 7 21 7 21 19 -2 8 -16 21 -24 38 -24 15 -1 35 -9 46 -18 18 -16 20 -16 45 4 15 11 27 27 27 34 0 8 4 16 9 19 5 4 7 -11 4 -32 -5 -41 12 -67 39 -57 26 10 51 65 45 101 -5 31 -4 34 20 34 25 0 26 0 19 -62 -12 -110 -67 -323 -142 -546 -27 -82 -34 -116 -26 -124 20 -20 65 105 152 427 26 97 43 183 47 242 6 91 6 93 -18 101 -13 5 -34 6 -46 1 -16 -6 -32 -3 -57 11 -18 11 -40 18 -48 15 -8 -3 -22 3 -32 14 -15 16 -32 19 -141 20 l-123 1 -26 -31z m184 -13 c0 -11 -19 -15 -25 -6 -3 5 1 10 9 10 9 0 16 -2 16 -4z m90 -32 c-15 -17 -30 -9 -30 17 0 17 3 18 21 9 16 -9 18 -14 9 -26z m-210 -19 c0 -19 -4 -35 -10 -35 -11 0 -14 53 -3 63 11 12 13 8 13 -28z m70 3 c0 -13 -4 -29 -9 -37 -13 -20 -24 4 -17 35 8 30 26 32 26 2z m228 -2 c4 -17 -13 -45 -21 -35 -2 2 -7 17 -11 32 -6 24 -4 28 11 25 10 -2 19 -12 21 -22z m-142 -31 c-4 -14 -11 -23 -16 -20 -11 7 -13 48 -3 59 13 13 26 -13 19 -39z m79 -14 c-3 -12 -13 -21 -21 -21 -9 0 -12 5 -8 13 23 40 41 46 29 8z m87 -33 c-7 -7 -12 -8 -12 -2 0 14 12 26 19 19 2 -3 -1 -11 -7 -17z"/>
 <path d="M3260 3725 c0 -3 2 -5 5 -5 3 0 5 2 5 5 0 3 -2 5 -5 5 -3 0 -5 -2 -5 -5z"/>
 <path d="M8602 2817 c-11 -12 -10 -31 3 -99 9 -46 25 -135 35 -198 17 -113 38 -189 39 -145 1 20 -13 107 -44 274 -8 46 -14 85 -13 86 9 7 88 12 88 5 0 -16 65 -18 83 -2 16 14 17 13 17 -7 0 -35 33 -22 45 17 5 17 13 32 17 32 24 0 -1 -118 -63 -308 -17 -51 -29 -96 -26 -98 6 -6 26 27 33 54 2 9 20 71 39 137 20 66 38 145 42 177 6 61 4 63 -40 58 -10 -1 -25 4 -34 11 -9 8 -53 15 -112 17 -78 3 -99 1 -109 -11z m168 -17 c0 -5 -4 -10 -10 -10 -5 0 -10 5 -10 10 0 6 5 10 10 10 6 0 10 -4 10 -10z m-133 -32 c-3 -7 -5 -2 -5 12 0 14 2 19 5 13 2 -7 2 -19 0 -25z m183 7 c0 -8 -2 -15 -4 -15 -2 0 -6 7 -10 15 -3 8 -1 15 4 15 6 0 10 -7 10 -15z"/>
 </g>
<g id="layer103" fill="#ce492b" stroke="none">
 <path d="M11385 4490 l-29 -30 53 -298 c69 -393 72 -406 95 -410 16 -3 18 0 12 19 -14 51 -97 571 -92 576 3 3 25 6 48 6 24 -1 49 4 56 10 11 8 16 7 24 -7 6 -10 19 -16 32 -14 13 1 31 -3 40 -11 22 -18 63 -1 76 31 8 21 9 21 9 -8 1 -40 22 -59 49 -45 24 13 44 58 40 91 -2 16 3 25 15 28 21 4 22 -15 3 -124 -16 -87 -21 -105 -102 -357 -58 -180 -59 -187 -44 -187 16 0 42 48 61 113 10 34 30 96 44 137 36 105 62 209 80 324 16 98 16 100 -4 120 -18 17 -25 19 -49 10 -24 -9 -33 -8 -52 8 -15 12 -32 17 -45 14 -14 -4 -28 1 -39 13 -14 16 -34 19 -134 20 l-118 1 -29 -30z m175 -20 c0 -5 -4 -10 -10 -10 -5 0 -10 5 -10 10 0 6 5 10 10 10 6 0 10 -4 10 -10z m87 -5 c8 -22 -6 -33 -17 -15 -13 20 -12 30 0 30 6 0 13 -7 17 -15z m-197 -35 c0 -16 -4 -30 -10 -30 -11 0 -14 43 -3 53 11 12 13 8 13 -23z m56 -28 c-12 -11 -18 7 -10 30 l8 23 4 -23 c2 -13 1 -26 -2 -30z m221 32 c3 -8 1 -20 -4 -25 -7 -7 -12 -2 -15 15 -6 28 9 36 19 10z m-127 -13 c0 -11 -4 -23 -10 -26 -6 -4 -10 5 -10 19 0 14 5 26 10 26 6 0 10 -9 10 -19z"/>
 <path d="M654 3948 c-4 -7 -3 -8 4 -4 12 7 16 16 8 16 -3 0 -8 -5 -12 -12z"/>
 <path d="M790 3924 c0 -8 5 -12 10 -9 6 3 10 10 10 16 0 5 -4 9 -10 9 -5 0 -10 -7 -10 -16z"/>
 <path d="M930 3900 c0 -7 3 -10 7 -7 3 4 3 10 0 14 -4 3 -7 0 -7 -7z"/>
 <path d="M820 3890 c0 -7 3 -10 7 -7 3 4 3 10 0 14 -4 3 -7 0 -7 -7z"/>
 <path d="M630 3880 c0 -7 3 -10 7 -7 3 4 3 10 0 14 -4 3 -7 0 -7 -7z"/>
 <path d="M760 3880 c0 -7 3 -10 7 -7 3 4 3 10 0 14 -4 3 -7 0 -7 -7z"/>
 <path d="M780 3846 c0 -2 8 -10 18 -17 15 -13 16 -12 3 4 -13 16 -21 21 -21 13z"/>
 <path d="M970 3845 c0 -3 2 -5 5 -5 3 0 5 2 5 5 0 3 -2 5 -5 5 -3 0 -5 -2 -5 -5z"/>
 <path d="M703 3823 c4 -3 10 -3 14 0 3 4 0 7 -7 7 -7 0 -10 -3 -7 -7z"/>
 <path d="M820 3815 c0 -3 2 -5 5 -5 3 0 5 2 5 5 0 3 -2 5 -5 5 -3 0 -5 -2 -5 -5z"/>
 <path d="M1030 3805 c0 -3 2 -5 5 -5 3 0 5 2 5 5 0 3 -2 5 -5 5 -3 0 -5 -2 -5 -5z"/>
 <path d="M680 3790 c0 -7 3 -10 7 -7 3 4 3 10 0 14 -4 3 -7 0 -7 -7z"/>
 <path d="M650 3780 c0 -7 3 -10 7 -7 3 4 3 10 0 14 -4 3 -7 0 -7 -7z"/>
 <path d="M1050 3750 c0 -7 3 -10 7 -7 3 4 3 10 0 14 -4 3 -7 0 -7 -7z"/>
 <path d="M1020 3745 c0 -3 2 -5 5 -5 3 0 5 2 5 5 0 3 -2 5 -5 5 -3 0 -5 -2 -5 -5z"/>
 <path d="M660 3730 c0 -7 3 -10 7 -7 3 4 3 10 0 14 -4 3 -7 0 -7 -7z"/>
 <path d="M700 3675 c0 -3 2 -5 5 -5 3 0 5 2 5 5 0 3 -2 5 -5 5 -3 0 -5 -2 -5 -5z"/>
 <path d="M980 3600 c0 -7 3 -10 7 -7 3 4 3 10 0 14 -4 3 -7 0 -7 -7z"/>
 <path d="M12894 3535 c-15 -23 -15 -32 -1 -107 9 -46 28 -153 42 -238 30 -180 42 -230 55 -230 6 0 10 2 10 4 0 8 -71 423 -76 442 -4 17 0 23 21 28 14 4 30 4 36 0 5 -3 17 0 25 7 12 10 17 9 28 -6 7 -10 18 -15 24 -11 6 4 20 1 31 -6 17 -10 24 -9 46 12 l25 23 0 -26 c0 -14 5 -29 12 -33 17 -10 48 33 48 67 0 19 5 29 15 29 9 0 15 -9 15 -22 0 -44 -49 -234 -93 -365 -34 -100 -42 -133 -31 -133 8 0 14 1 14 3 0 1 9 27 20 57 40 108 101 326 110 395 10 81 3 96 -46 93 -19 -1 -39 3 -46 10 -7 7 -22 12 -34 12 -13 0 -26 5 -29 10 -3 6 -50 10 -105 10 -95 0 -100 -1 -116 -25z m216 -20 c0 -8 -4 -15 -9 -15 -5 0 -11 7 -15 15 -3 9 0 15 9 15 8 0 15 -7 15 -15z m60 -25 c0 -11 -4 -20 -10 -20 -5 0 -10 9 -10 20 0 11 5 20 10 20 6 0 10 -9 10 -20z m-100 -4 c0 -8 -4 -18 -10 -21 -5 -3 -10 3 -10 14 0 12 5 21 10 21 6 0 10 -6 10 -14z"/>
 <path d="M950 3495 c0 -3 2 -5 5 -5 3 0 5 2 5 5 0 3 -2 5 -5 5 -3 0 -5 -2 -5 -5z"/>
 <path d="M940 3465 c0 -3 2 -5 5 -5 3 0 5 2 5 5 0 3 -2 5 -5 5 -3 0 -5 -2 -5 -5z"/>
 <path d="M960 3435 c0 -3 2 -5 5 -5 3 0 5 2 5 5 0 3 -2 5 -5 5 -3 0 -5 -2 -5 -5z"/>
 <path d="M4437 2962 c-22 -24 -22 -40 7 -179 14 -65 34 -169 45 -231 20 -106 34 -152 48 -152 8 0 -4 85 -28 200 -11 52 -24 124 -30 160 -5 36 -12 72 -15 81 -5 19 39 32 55 16 7 -7 15 -6 26 3 13 11 19 10 35 -5 10 -9 23 -14 29 -11 6 4 20 1 31 -6 19 -11 24 -10 41 11 10 13 19 37 19 54 0 23 3 28 11 20 8 -8 9 -20 1 -43 -13 -37 -6 -60 19 -60 22 0 39 28 39 64 0 16 6 26 15 26 19 0 19 -11 0 -102 -18 -85 -44 -167 -92 -292 -22 -57 -31 -92 -25 -98 15 -15 30 19 89 196 87 259 91 336 19 322 -20 -4 -35 -1 -47 10 -10 9 -25 14 -32 11 -8 -3 -20 0 -26 6 -6 6 -56 12 -114 14 -90 3 -106 1 -120 -15z m140 -19 c-4 -3 -10 -3 -14 0 -3 4 0 7 7 7 7 0 10 -3 7 -7z m74 -6 c-1 -12 -15 -9 -19 4 -3 6 1 10 8 8 6 -3 11 -8 11 -12z m-164 -39 c-3 -7 -5 -2 -5 12 0 14 2 19 5 13 2 -7 2 -19 0 -25z m50 0 c-3 -7 -5 -2 -5 12 0 14 2 19 5 13 2 -7 2 -19 0 -25z m69 -16 c-12 -11 -18 7 -10 30 l8 23 4 -23 c2 -13 1 -26 -2 -30z m64 -2 c0 -5 -5 -10 -11 -10 -5 0 -7 5 -4 10 3 6 8 10 11 10 2 0 4 -4 4 -10z"/>
 <path d="M14130 2605 c0 -3 2 -5 5 -5 3 0 5 2 5 5 0 3 -2 5 -5 5 -3 0 -5 -2 -5 -5z"/>
 <path d="M14290 2595 c0 -3 2 -5 5 -5 3 0 5 2 5 5 0 3 -2 5 -5 5 -3 0 -5 -2 -5 -5z"/>
 <path d="M14210 2585 c0 -3 2 -5 5 -5 3 0 5 2 5 5 0 3 -2 5 -5 5 -3 0 -5 -2 -5 -5z"/>
 <path d="M14330 2585 c0 -3 2 -5 5 -5 3 0 5 2 5 5 0 3 -2 5 -5 5 -3 0 -5 -2 -5 -5z"/>
 <path d="M14265 2570 c3 -5 8 -10 11 -10 3 0 2 5 -1 10 -3 6 -8 10 -11 10 -3 0 -2 -4 1 -10z"/>
 <path d="M14350 2575 c0 -3 2 -5 5 -5 3 0 5 2 5 5 0 3 -2 5 -5 5 -3 0 -5 -2 -5 -5z"/>
 <path d="M14402 2550 c0 -14 2 -19 5 -12 2 6 2 18 0 25 -3 6 -5 1 -5 -13z"/>
 <path d="M14235 2550 c-3 -5 -1 -10 4 -10 6 0 11 5 11 10 0 6 -2 10 -4 10 -3 0 -8 -4 -11 -10z"/>
 <path d="M14284 2538 c-4 -7 -3 -8 4 -4 12 7 16 16 8 16 -3 0 -8 -5 -12 -12z"/>
 <path d="M14310 2539 c0 -5 5 -7 10 -4 6 3 10 8 10 11 0 2 -4 4 -10 4 -5 0 -10 -5 -10 -11z"/>
 <path d="M14380 2525 c0 -3 2 -5 5 -5 3 0 5 2 5 5 0 3 -2 5 -5 5 -3 0 -5 -2 -5 -5z"/>
 <path d="M14350 2505 c0 -3 2 -5 5 -5 3 0 5 2 5 5 0 3 -2 5 -5 5 -3 0 -5 -2 -5 -5z"/>
 <path d="M14120 2490 c0 -7 3 -10 7 -7 3 4 3 10 0 14 -4 3 -7 0 -7 -7z"/>
 <path d="M14140 2485 c0 -3 2 -5 5 -5 3 0 5 2 5 5 0 3 -2 5 -5 5 -3 0 -5 -2 -5 -5z"/>
 <path d="M14370 2465 c0 -3 2 -5 5 -5 3 0 5 2 5 5 0 3 -2 5 -5 5 -3 0 -5 -2 -5 -5z"/>
 <path d="M14130 2440 c0 -7 3 -10 7 -7 3 4 3 10 0 14 -4 3 -7 0 -7 -7z"/>
 <path d="M14150 2435 c0 -3 2 -5 5 -5 3 0 5 2 5 5 0 3 -2 5 -5 5 -3 0 -5 -2 -5 -5z"/>
 <path d="M14360 2430 c0 -7 3 -10 7 -7 3 4 3 10 0 14 -4 3 -7 0 -7 -7z"/>
 <path d="M14380 2430 c0 -7 3 -10 7 -7 3 4 3 10 0 14 -4 3 -7 0 -7 -7z"/>
 <path d="M14370 2390 c0 -7 3 -10 7 -7 3 4 3 10 0 14 -4 3 -7 0 -7 -7z"/>
 <path d="M14340 2355 c0 -3 2 -5 5 -5 3 0 5 2 5 5 0 3 -2 5 -5 5 -3 0 -5 -2 -5 -5z"/>
 <path d="M14340 2295 c0 -3 2 -5 5 -5 3 0 5 2 5 5 0 3 -2 5 -5 5 -3 0 -5 -2 -5 -5z"/>
 <path d="M5781 2264 c-12 -15 -19 -34 -17 -43 3 -9 12 -61 22 -116 9 -55 18 -103 20 -106 2 -3 12 -65 23 -138 23 -147 34 -179 57 -161 7 7 12 16 9 20 -2 4 -11 52 -20 107 -8 55 -21 129 -29 164 -8 35 -17 87 -21 115 -6 46 -4 52 13 56 11 3 25 1 31 -5 8 -8 14 -8 22 0 9 9 17 8 34 -3 17 -11 25 -12 30 -4 5 8 11 5 20 -6 12 -17 14 -17 38 -1 24 15 25 15 30 -3 12 -45 68 -9 80 51 3 13 3 -1 1 -31 -4 -58 -51 -226 -103 -369 -30 -84 -32 -113 -5 -90 20 16 36 55 78 184 78 242 94 345 57 365 -12 6 -29 7 -43 1 -16 -6 -27 -4 -36 5 -7 8 -24 14 -37 14 -13 0 -26 4 -29 9 -4 5 -51 10 -105 10 -96 1 -100 0 -120 -25z m279 -44 c0 -5 -2 -10 -4 -10 -3 0 -8 5 -11 10 -3 6 -1 10 4 10 6 0 11 -4 11 -10z m-113 -22 c-3 -8 -6 -5 -6 6 -1 11 2 17 5 13 3 -3 4 -12 1 -19z"/>
 <path d="M14180 2260 c0 -7 3 -10 7 -7 3 4 3 10 0 14 -4 3 -7 0 -7 -7z"/>
 <path d="M14190 2200 c0 -7 3 -10 7 -7 3 4 3 10 0 14 -4 3 -7 0 -7 -7z"/>
 <path d="M14290 2205 c0 -3 2 -5 5 -5 3 0 5 2 5 5 0 3 -2 5 -5 5 -3 0 -5 -2 -5 -5z"/>
 </g>
<g id="layer104" fill="#c9d60c" stroke="none">
 <path d="M656 3939 c-15 -17 -25 -39 -22 -48 9 -29 35 -174 61 -331 39 -242 52 -289 69 -261 4 5 -14 122 -39 260 -25 138 -45 256 -45 262 0 8 14 10 45 6 34 -5 46 -3 53 9 8 14 10 14 21 0 8 -9 22 -16 32 -16 11 0 28 -6 40 -12 18 -11 23 -9 46 16 19 22 23 36 19 58 -4 21 -2 28 7 25 12 -4 12 -12 1 -79 -5 -31 -3 -39 11 -45 25 -9 55 31 55 73 0 25 4 34 16 34 15 0 16 -9 10 -67 -3 -38 -18 -108 -32 -158 -14 -49 -32 -112 -40 -140 -7 -27 -27 -85 -44 -128 -28 -73 -31 -105 -10 -92 13 8 32 56 70 175 47 150 58 192 79 305 23 122 18 140 -40 132 -26 -3 -42 0 -50 9 -6 8 -21 14 -33 14 -12 0 -27 5 -34 12 -7 7 -53 13 -116 15 l-104 3 -26 -31z m154 -8 c0 -6 -4 -13 -10 -16 -5 -3 -10 1 -10 9 0 9 5 16 10 16 6 0 10 -4 10 -9z m80 -17 c0 -9 -5 -14 -12 -12 -18 6 -21 28 -4 28 9 0 16 -7 16 -16z m-180 -19 c0 -14 -4 -25 -10 -25 -11 0 -14 33 -3 43 11 11 13 8 13 -18z m51 -28 c-8 -8 -11 -5 -11 9 0 27 14 41 18 19 2 -9 -1 -22 -7 -28z m79 14 c0 -11 -4 -23 -10 -26 -6 -4 -10 5 -10 19 0 14 5 26 10 26 6 0 10 -9 10 -19z m61 -34 c-8 -8 -11 -7 -11 4 0 20 13 34 18 19 3 -7 -1 -17 -7 -23z m76 -14 c-4 -3 -7 0 -7 7 0 7 3 10 7 7 3 -4 3 -10 0 -14z"/>
 <path d="M6841 3413 c-23 -16 -27 -59 -11 -129 23 -102 60 -347 55 -365 -4 -11 -2 -19 4 -19 6 0 11 -4 11 -9 0 -5 5 -22 10 -37 20 -53 29 -10 14 71 -41 232 -63 369 -59 373 3 3 19 5 37 4 18 0 38 4 44 9 8 6 14 4 18 -6 3 -9 14 -15 23 -14 10 1 26 -1 36 -6 11 -4 23 -3 30 4 16 16 24 14 30 -9 12 -45 72 2 65 51 -2 12 3 24 10 26 31 11 -9 -186 -82 -394 -39 -111 -42 -127 -24 -121 17 6 46 58 47 84 1 11 14 60 31 108 32 97 70 260 70 305 0 34 -22 55 -49 46 -11 -3 -30 1 -44 10 -13 8 -27 12 -30 9 -4 -4 -13 -2 -20 4 -22 19 -192 23 -216 5z m119 -18 c0 -3 -2 -5 -5 -5 -3 0 -5 2 -5 5 0 3 2 5 5 5 3 0 5 -2 5 -5z m80 -15 c0 -5 -4 -10 -10 -10 -5 0 -10 5 -10 10 0 6 5 10 10 10 6 0 10 -4 10 -10z m-163 -32 c-3 -8 -6 -5 -6 6 -1 11 2 17 5 13 3 -3 4 -12 1 -19z m50 -5 c-4 -3 -7 0 -7 7 0 7 3 10 7 7 3 -4 3 -10 0 -14z m68 8 c3 -5 1 -12 -5 -16 -5 -3 -10 1 -10 9 0 18 6 21 15 7z m105 -1 c0 -5 -4 -10 -10 -10 -5 0 -10 5 -10 10 0 6 5 10 10 10 6 0 10 -4 10 -10z m-50 -25 c0 -3 -2 -5 -5 -5 -3 0 -5 2 -5 5 0 3 2 5 5 5 3 0 5 -2 5 -5z"/>
 <path d="M14125 2593 c-11 -10 -15 -25 -11 -42 3 -14 19 -104 36 -200 16 -96 34 -179 40 -185 13 -13 15 -28 -20 173 -17 96 -29 175 -28 177 7 6 75 6 91 0 42 -15 50 -16 63 -5 8 6 14 22 14 35 0 13 5 24 10 24 6 0 8 -15 4 -40 -5 -32 -3 -40 9 -40 16 0 27 20 27 51 0 10 7 19 15 19 8 0 15 -6 15 -12 -1 -31 -31 -152 -64 -253 -39 -118 -41 -129 -27 -120 21 12 101 302 101 365 0 37 -2 41 -22 39 -30 -2 -87 11 -94 22 -3 5 -36 9 -74 9 -51 0 -73 -4 -85 -17z m102 -10 c-4 -3 -10 -3 -14 0 -3 4 0 7 7 7 7 0 10 -3 7 -7z m53 -9 c0 -8 -4 -12 -10 -9 -5 3 -10 10 -10 16 0 5 5 9 10 9 6 0 10 -7 10 -16z m-123 -11 c-4 -3 -7 0 -7 7 0 7 3 10 7 7 3 -4 3 -10 0 -14z m93 -13 c0 -5 -5 -10 -11 -10 -5 0 -7 5 -4 10 3 6 8 10 11 10 2 0 4 -4 4 -10z m50 -4 c0 -3 -5 -8 -12 -12 -7 -4 -8 -3 -4 4 7 12 16 16 16 8z"/>
 </g>
<g id="layer105" fill="#c835b4" stroke="none">
 <path d="M2863 4338 c-33 -37 -34 -43 -13 -110 10 -34 40 -148 65 -253 60 -250 74 -295 91 -295 8 0 14 4 14 8 0 5 -29 125 -65 268 -36 142 -65 262 -65 265 0 3 31 5 69 3 52 -3 72 0 81 11 17 21 27 19 33 -6 5 -19 11 -21 45 -15 30 4 41 2 46 -9 9 -24 45 -17 78 15 23 23 29 36 24 55 -7 28 9 42 29 25 11 -9 11 -15 -1 -38 -39 -75 14 -120 66 -56 8 9 14 30 15 48 0 26 4 31 28 34 24 3 27 0 27 -26 0 -69 -73 -267 -166 -454 -30 -59 -54 -110 -54 -113 0 -3 8 -5 18 -5 10 0 24 14 33 33 152 319 223 518 203 570 -8 21 -41 28 -85 18 -25 -6 -41 -4 -54 5 -10 8 -35 14 -54 14 -20 0 -44 7 -54 14 -13 10 -59 14 -176 15 -151 1 -158 0 -178 -21z m211 -4 c12 -5 13 -10 3 -31 -10 -22 -12 -23 -18 -6 -9 21 -11 43 -5 43 2 0 11 -3 20 -6z m131 -14 c3 -6 -1 -17 -10 -26 -18 -18 -18 -18 -34 14 -11 20 -9 22 13 22 14 0 28 -5 31 -10z m-265 -35 c0 -34 -12 -46 -25 -24 -9 14 3 59 15 59 6 0 10 -16 10 -35z m86 11 c3 -8 0 -25 -6 -37 -10 -18 -14 -20 -21 -7 -9 17 -1 58 12 58 6 0 12 -6 15 -14z m106 -3 c6 -28 -2 -53 -18 -53 -14 0 -19 27 -8 54 8 21 21 20 26 -1z m-252 2 c0 -3 -2 -5 -5 -5 -3 0 -5 2 -5 5 0 3 2 5 5 5 3 0 5 -2 5 -5z m340 -60 c-7 -8 -16 -15 -21 -15 -15 0 -10 22 9 43 15 17 17 17 20 3 2 -9 -2 -23 -8 -31z m116 -11 c-3 -8 -10 -12 -16 -9 -7 4 -6 14 2 28 12 24 24 8 14 -19z"/>
 <path d="M9634 3712 c-31 -24 -37 -54 -20 -98 9 -22 27 -97 42 -169 63 -313 74 -355 94 -355 16 0 13 15 -40 257 -27 125 -50 232 -50 238 0 7 17 10 47 9 25 -2 54 1 63 6 13 7 22 5 31 -6 8 -10 21 -13 40 -9 15 3 30 1 34 -4 10 -17 37 -13 62 11 23 21 23 21 23 1 0 -35 26 -48 55 -29 25 17 28 22 29 66 1 16 8 26 20 28 17 4 18 -1 13 -49 -9 -82 -66 -254 -137 -414 -26 -60 -32 -83 -21 -89 12 -8 48 42 57 80 3 16 12 38 19 49 35 56 125 351 125 409 0 31 -11 38 -69 41 -54 4 -118 17 -146 32 -11 6 -72 11 -135 11 -95 1 -119 -2 -136 -16z m163 -29 c-4 -3 -7 0 -7 7 0 7 3 10 7 7 3 -4 3 -10 0 -14z m98 -1 c0 -18 -20 -15 -23 4 -3 10 1 15 10 12 7 -3 13 -10 13 -16z m-205 -29 c0 -20 -3 -24 -11 -16 -7 7 -9 19 -6 27 10 24 17 19 17 -11z m70 -2 c0 -11 -4 -23 -10 -26 -6 -4 -10 5 -10 19 0 14 5 26 10 26 6 0 10 -9 10 -19z m224 10 c3 -5 0 -14 -8 -20 -11 -9 -15 -7 -19 9 -5 20 16 29 27 11z m-134 -15 c0 -8 -4 -17 -9 -21 -12 -7 -24 12 -16 25 9 15 25 12 25 -4z m67 -31 c-4 -8 -11 -15 -17 -15 -7 0 -7 6 0 21 13 23 26 19 17 -6z m84 -18 c-10 -9 -11 -8 -5 6 3 10 9 15 12 12 3 -3 0 -11 -7 -18z"/>
 <path d="M15262 3468 c-17 -17 -15 -53 9 -187 11 -64 29 -165 40 -226 10 -60 19 -120 19 -132 0 -13 5 -23 10 -23 14 0 13 20 -9 145 -23 132 -51 303 -51 314 0 5 18 7 40 5 30 -3 42 1 47 12 4 12 8 11 20 -6 8 -12 21 -19 29 -16 7 3 16 1 19 -4 12 -19 36 -9 55 23 l20 32 -2 -30 c-1 -17 2 -36 6 -43 14 -23 46 16 46 55 0 23 5 33 15 33 35 0 1 -182 -75 -404 -32 -96 -35 -110 -21 -101 25 15 120 352 128 453 l6 74 -36 -3 c-20 -2 -42 2 -49 9 -6 6 -22 12 -34 12 -13 0 -26 5 -29 10 -9 15 -188 13 -203 -2z m128 -18 c0 -5 -4 -10 -10 -10 -5 0 -10 5 -10 10 0 6 5 10 10 10 6 0 10 -4 10 -10z m67 -5 c8 -22 -6 -33 -17 -15 -13 20 -12 30 0 30 6 0 13 -7 17 -15z m-151 -22 c-10 -10 -19 5 -10 18 6 11 8 11 12 0 2 -7 1 -15 -2 -18z m45 -30 c-9 -16 -10 -15 -11 8 0 14 3 29 8 33 12 12 14 -22 3 -41z m163 26 c-3 -5 -10 -7 -15 -3 -5 3 -7 10 -3 15 3 5 10 7 15 3 5 -3 7 -10 3 -15z m-94 -14 c0 -14 -4 -25 -10 -25 -5 0 -10 11 -10 25 0 14 5 25 10 25 6 0 10 -11 10 -25z m-110 -5 c0 -5 -4 -10 -10 -10 -5 0 -10 5 -10 10 0 6 5 10 10 10 6 0 10 -4 10 -10z m167 -15 c-4 -8 -11 -15 -17 -15 -7 0 -7 6 0 21 13 23 26 19 17 -6z m63 -10 c0 -8 -4 -15 -10 -15 -5 0 -7 7 -4 15 4 8 8 15 10 15 2 0 4 -7 4 -15z"/>
 </g>
<g id="layer106" fill="#18b4b4" stroke="none">
 <path d="M7764 4968 l-19 -23 23 19 c12 11 22 21 22 23 0 8 -8 2 -26 -19z"/>
 <path d="M7963 4983 c4 -3 10 -3 14 0 3 4 0 7 -7 7 -7 0 -10 -3 -7 -7z"/>
 <path d="M8055 4970 c10 -11 20 -20 23 -20 3 0 -3 9 -13 20 -10 11 -20 20 -23 20 -3 0 3 -9 13 -20z"/>
 <path d="M8100 4966 c0 -3 9 -10 20 -16 11 -6 20 -8 20 -6 0 3 -9 10 -20 16 -11 6 -20 8 -20 6z"/>
 <path d="M7940 4945 c0 -3 2 -5 5 -5 3 0 5 2 5 5 0 3 -2 5 -5 5 -3 0 -5 -2 -5 -5z"/>
 <path d="M7740 4935 c0 -3 2 -5 5 -5 3 0 5 2 5 5 0 3 -2 5 -5 5 -3 0 -5 -2 -5 -5z"/>
 <path d="M8193 4933 c4 -3 10 -3 14 0 3 4 0 7 -7 7 -7 0 -10 -3 -7 -7z"/>
 <path d="M8223 4933 c4 -3 10 -3 14 0 3 4 0 7 -7 7 -7 0 -10 -3 -7 -7z"/>
 <path d="M7815 4920 c-3 -5 -1 -10 4 -10 6 0 11 5 11 10 0 6 -2 10 -4 10 -3 0 -8 -4 -11 -10z"/>
 <path d="M8010 4921 c0 -6 4 -13 10 -16 6 -3 7 1 4 9 -7 18 -14 21 -14 7z"/>
 <path d="M8040 4925 c0 -3 2 -5 5 -5 3 0 5 2 5 5 0 3 -2 5 -5 5 -3 0 -5 -2 -5 -5z"/>
 <path d="M8170 4925 c0 -3 2 -5 5 -5 3 0 5 2 5 5 0 3 -2 5 -5 5 -3 0 -5 -2 -5 -5z"/>
 <path d="M7885 4910 c3 -5 8 -10 11 -10 2 0 4 5 4 10 0 6 -5 10 -11 10 -5 0 -7 -4 -4 -10z"/>
 <path d="M8090 4910 c0 -6 5 -8 11 -4 6 3 16 0 21 -7 8 -12 9 -11 5 1 -4 18 -37 27 -37 10z"/>
 <path d="M7967 4903 c-10 -9 -8 -51 2 -57 5 -3 12 1 15 10 9 24 7 31 -5 14 -8 -12 -10 -9 -6 13 5 29 4 31 -6 20z"/>
 <path d="M7870 4881 c0 -11 4 -22 9 -25 4 -3 6 6 3 19 -5 30 -12 33 -12 6z"/>
 <path d="M7890 4880 c0 -7 3 -10 7 -7 3 4 3 10 0 14 -4 3 -7 0 -7 -7z"/>
 <path d="M8180 4880 c0 -7 3 -10 7 -7 3 4 3 10 0 14 -4 3 -7 0 -7 -7z"/>
 <path d="M8051 4867 c-8 -10 -7 -14 4 -14 8 0 15 6 15 14 0 7 -2 13 -4 13 -2 0 -9 -6 -15 -13z"/>
 <path d="M8114 4868 c-4 -7 -3 -8 4 -4 12 7 16 16 8 16 -3 0 -8 -5 -12 -12z"/>
 <path d="M7920 4840 c0 -7 3 -10 7 -7 3 4 3 10 0 14 -4 3 -7 0 -7 -7z"/>
 <path d="M8030 4835 c0 -3 2 -5 5 -5 3 0 5 2 5 5 0 3 -2 5 -5 5 -3 0 -5 -2 -5 -5z"/>
 <path d="M8050 4835 c0 -3 2 -5 5 -5 3 0 5 2 5 5 0 3 -2 5 -5 5 -3 0 -5 -2 -5 -5z"/>
 <path d="M8147 4833 c-4 -3 -7 -11 -7 -17 0 -6 5 -5 12 2 6 6 9 14 7 17 -3 3 -9 2 -12 -2z"/>
 <path d="M8220 4830 c0 -7 3 -10 7 -7 3 4 3 10 0 14 -4 3 -7 0 -7 -7z"/>
 <path d="M7790 4810 c0 -7 3 -10 7 -7 3 4 3 10 0 14 -4 3 -7 0 -7 -7z"/>
 <path d="M7935 4810 c3 -5 8 -10 11 -10 3 0 2 5 -1 10 -3 6 -8 10 -11 10 -3 0 -2 -4 1 -10z"/>
 <path d="M7790 4780 c0 -7 3 -10 7 -7 3 4 3 10 0 14 -4 3 -7 0 -7 -7z"/>
 <path d="M8010 4785 c0 -3 2 -5 5 -5 3 0 5 2 5 5 0 3 -2 5 -5 5 -3 0 -5 -2 -5 -5z"/>
 <path d="M8164 4778 c-4 -7 -3 -8 4 -4 7 4 12 9 12 12 0 8 -9 4 -16 -8z"/>
 <path d="M8210 4760 c0 -7 3 -10 7 -7 3 4 3 10 0 14 -4 3 -7 0 -7 -7z"/>
 <path d="M7800 4750 c0 -7 3 -10 7 -7 3 4 3 10 0 14 -4 3 -7 0 -7 -7z"/>
 <path d="M8201 4714 c0 -11 3 -14 6 -6 3 7 2 16 -1 19 -3 4 -6 -2 -5 -13z"/>
 <path d="M7770 4690 c0 -7 3 -10 7 -7 3 4 3 10 0 14 -4 3 -7 0 -7 -7z"/>
 <path d="M7810 4690 c0 -7 3 -10 7 -7 3 4 3 10 0 14 -4 3 -7 0 -7 -7z"/>
 <path d="M8190 4675 c0 -3 2 -5 5 -5 3 0 5 2 5 5 0 3 -2 5 -5 5 -3 0 -5 -2 -5 -5z"/>
 <path d="M8230 4675 c0 -3 2 -5 5 -5 3 0 5 2 5 5 0 3 -2 5 -5 5 -3 0 -5 -2 -5 -5z"/>
 <path d="M8180 4630 c0 -7 3 -10 7 -7 3 4 3 10 0 14 -4 3 -7 0 -7 -7z"/>
 <path d="M8220 4630 c0 -7 3 -10 7 -7 3 4 3 10 0 14 -4 3 -7 0 -7 -7z"/>
 <path d="M7780 4620 c0 -7 3 -10 7 -7 3 4 3 10 0 14 -4 3 -7 0 -7 -7z"/>
 <path d="M7820 4620 c0 -7 3 -10 7 -7 3 4 3 10 0 14 -4 3 -7 0 -7 -7z"/>
 <path d="M8210 4590 c0 -7 3 -10 7 -7 3 4 3 10 0 14 -4 3 -7 0 -7 -7z"/>
 <path d="M8170 4585 c0 -3 2 -5 5 -5 3 0 5 2 5 5 0 3 -2 5 -5 5 -3 0 -5 -2 -5 -5z"/>
 <path d="M7791 4560 c0 -8 4 -24 9 -35 5 -13 9 -14 9 -5 0 8 -4 24 -9 35 -5 13 -9 14 -9 5z"/>
 <path d="M8200 4560 c0 -7 3 -10 7 -7 3 4 3 10 0 14 -4 3 -7 0 -7 -7z"/>
 <path d="M8160 4550 c0 -7 3 -10 7 -7 3 4 3 10 0 14 -4 3 -7 0 -7 -7z"/>
 <path d="M7810 4460 c0 -7 3 -10 7 -7 3 4 3 10 0 14 -4 3 -7 0 -7 -7z"/>
 <path d="M8130 4450 c0 -7 3 -10 7 -7 3 4 3 10 0 14 -4 3 -7 0 -7 -7z"/>
 <path d="M8170 4455 c0 -3 2 -5 5 -5 3 0 5 2 5 5 0 3 -2 5 -5 5 -3 0 -5 -2 -5 -5z"/>
 <path d="M7850 4420 c0 -7 3 -10 7 -7 3 4 3 10 0 14 -4 3 -7 0 -7 -7z"/>
 <path d="M8121 4414 c0 -11 3 -14 6 -6 3 7 2 16 -1 19 -3 4 -6 -2 -5 -13z"/>
 <path d="M7550 4399 c-19 -12 22 -49 132 -121 111 -71 138 -105 138 -172 0 -41 -7 -68 -30 -111 -32 -60 -38 -100 -17 -108 9 -3 5 -16 -12 -49 l-24 -45 48 -71 c25 -40 51 -74 56 -78 5 -3 16 -20 23 -39 8 -18 28 -41 45 -51 l31 -18 0 -1768 c0 -1761 0 -1768 20 -1768 20 0 20 7 20 1769 l0 1770 25 19 c13 11 30 32 37 48 7 16 41 60 75 98 35 38 63 72 63 76 0 4 -11 33 -25 63 l-24 56 20 49 20 49 -25 38 c-33 49 -43 101 -25 134 14 24 63 61 158 116 46 27 50 33 38 48 -12 17 -17 16 -87 -17 -81 -39 -96 -43 -103 -23 -2 6 -7 -6 -11 -28 -4 -21 -17 -57 -28 -79 -19 -38 -21 -39 -34 -21 -8 10 -14 13 -14 7 0 -8 -22 -12 -69 -12 -39 0 -73 -5 -76 -10 -11 -18 -48 9 -42 31 3 10 2 17 -3 14 -4 -3 -10 2 -14 10 -3 8 -1 15 3 15 5 0 6 12 2 27 -5 20 -16 29 -40 36 -19 4 -44 15 -56 23 -12 8 -24 12 -27 9 -3 -3 -34 14 -69 38 -87 59 -83 57 -99 46z m558 -391 c5 -26 -124 -45 -203 -29 -70 15 -67 13 -59 35 6 14 22 16 133 14 108 -3 126 -5 129 -20z m-168 -74 c41 -3 94 -1 118 4 43 10 48 7 34 -16 -7 -9 -42 -12 -143 -10 -122 3 -134 5 -137 22 -3 16 0 18 25 12 15 -3 62 -9 103 -12z m167 -80 c5 -14 -79 -44 -121 -44 -30 0 -114 22 -146 37 -8 4 32 10 90 14 140 7 173 6 177 -7z m-259 -60 c52 -22 161 -29 217 -15 26 7 49 10 51 8 2 -2 -9 -19 -26 -37 -32 -36 -77 -48 -178 -49 -52 -1 -53 0 -82 46 -43 68 -42 72 18 47z m172 -154 c0 -19 -48 -60 -69 -60 -19 0 -61 35 -61 51 0 4 15 10 33 12 65 8 97 7 97 -3z"/>
 <path d="M7820 4390 c0 -7 3 -10 7 -7 3 4 3 10 0 14 -4 3 -7 0 -7 -7z"/>
 <path d="M8110 4380 c0 -7 3 -10 7 -7 3 4 3 10 0 14 -4 3 -7 0 -7 -7z"/>
 <path d="M8150 4385 c0 -3 2 -5 5 -5 3 0 5 2 5 5 0 3 -2 5 -5 5 -3 0 -5 -2 -5 -5z"/>
 <path d="M7860 4360 c0 -7 3 -10 7 -7 3 4 3 10 0 14 -4 3 -7 0 -7 -7z"/>
 <path d="M7830 4330 c0 -7 3 -10 7 -7 3 4 3 10 0 14 -4 3 -7 0 -7 -7z"/>
 <path d="M8130 4320 c0 -7 3 -10 7 -7 3 4 3 10 0 14 -4 3 -7 0 -7 -7z"/>
 <path d="M7871 4294 c0 -11 3 -14 6 -6 3 7 2 16 -1 19 -3 4 -6 -2 -5 -13z"/>
 <path d="M8080 4285 c0 -3 2 -5 5 -5 3 0 5 2 5 5 0 3 -2 5 -5 5 -3 0 -5 -2 -5 -5z"/>
 <path d="M7882 4240 c0 -14 2 -19 5 -12 2 6 2 18 0 25 -3 6 -5 1 -5 -13z"/>
 <path d="M8070 4255 c0 -3 2 -5 5 -5 3 0 5 2 5 5 0 3 -2 5 -5 5 -3 0 -5 -2 -5 -5z"/>
 <path d="M8060 4225 c0 -3 2 -5 5 -5 3 0 5 2 5 5 0 3 -2 5 -5 5 -3 0 -5 -2 -5 -5z"/>
 <path d="M7890 4200 c0 -7 3 -10 7 -7 3 4 3 10 0 14 -4 3 -7 0 -7 -7z"/>
 <path d="M11181 3976 c-9 -10 1 -22 46 -53 32 -22 74 -48 93 -58 19 -10 54 -37 78 -60 38 -39 42 -48 42 -91 -1 -35 -10 -65 -30 -104 -34 -62 -37 -85 -14 -94 13 -5 13 -10 -5 -35 -30 -41 -26 -58 24 -126 25 -33 56 -77 70 -97 13 -20 34 -42 45 -48 20 -11 20 -17 20 -1610 0 -1593 0 -1600 20 -1600 20 0 20 7 20 1599 l0 1600 30 21 c16 12 33 32 36 44 3 13 32 49 65 82 32 32 59 66 59 76 0 10 -10 37 -21 62 l-22 44 22 45 22 46 -21 21 c-25 25 -40 62 -40 100 0 32 45 77 111 110 22 12 54 29 70 39 27 17 29 20 15 34 -14 14 -20 13 -63 -7 -27 -13 -65 -29 -85 -35 -23 -8 -39 -20 -43 -34 -11 -37 -35 -86 -46 -93 -6 -3 -15 -2 -21 4 -12 12 -127 4 -145 -10 -14 -12 -33 -2 -33 16 0 8 -6 19 -14 25 -10 8 -13 23 -9 44 5 31 3 32 -59 55 -35 12 -71 24 -80 27 -10 2 -37 17 -60 33 -63 42 -65 43 -77 28z m529 -330 c0 -2 3 -11 6 -19 4 -12 -10 -18 -65 -27 -100 -17 -197 2 -185 35 5 12 29 15 125 15 65 0 119 -2 119 -4z m-93 -92 c35 4 70 9 78 12 10 4 13 2 10 -8 -9 -22 -243 -34 -263 -14 -27 27 -4 35 56 19 38 -10 77 -13 119 -9z m93 -69 c0 -34 -125 -45 -211 -18 l-54 18 65 6 c133 12 200 10 200 -6z m-212 -61 c55 -16 151 -15 212 2 23 6 22 3 -13 -32 l-37 -39 -93 -3 c-87 -3 -93 -2 -106 20 -8 13 -21 33 -29 46 -18 27 -10 28 66 6z m132 -132 c0 -4 -7 -18 -16 -30 -18 -26 -60 -29 -86 -5 -24 21 -23 31 5 36 39 8 97 7 97 -1z"/>
 <path d="M2596 3881 c-8 -13 47 -44 166 -93 118 -49 178 -98 178 -145 0 -20 -15 -48 -45 -87 -25 -32 -45 -62 -45 -67 0 -4 9 -13 20 -19 20 -11 20 -12 -11 -41 l-33 -31 96 -93 c52 -52 107 -99 121 -104 l27 -11 0 -1595 c0 -1588 0 -1595 20 -1595 20 0 20 7 20 1593 l0 1594 40 18 c23 10 45 29 51 44 7 15 33 39 58 55 25 15 59 38 76 51 l30 24 -29 54 -29 53 26 39 27 39 -27 17 c-51 34 -68 93 -35 122 20 19 210 107 230 107 17 0 15 19 -2 26 -8 3 -52 -6 -98 -20 -46 -14 -95 -28 -109 -31 -19 -3 -33 -18 -50 -51 l-24 -46 -133 -2 -133 -1 -25 32 -24 32 22 3 c21 3 21 4 4 21 -10 9 -30 17 -46 17 -37 0 -150 35 -227 71 -67 31 -79 34 -87 20z m684 -306 c20 -24 -11 -30 -150 -30 -144 0 -188 8 -170 30 18 22 302 22 320 0z m-252 -65 c48 -6 109 -7 158 -1 81 8 95 7 78 -8 -12 -11 -318 -21 -334 -11 -7 5 -10 15 -7 25 4 9 11 14 16 10 5 -3 45 -10 89 -15z m251 -63 c24 -30 -160 -48 -259 -27 -99 22 -92 25 60 30 85 3 162 7 171 8 9 1 22 -4 28 -11z m-245 -64 c73 -13 102 -14 161 -5 39 6 79 14 88 18 30 11 18 -10 -22 -38 -35 -25 -49 -28 -160 -34 l-122 -7 -40 39 c-44 43 -50 59 -16 50 12 -3 62 -13 111 -23z m136 -117 c0 -21 -25 -37 -67 -43 -30 -4 -45 0 -68 19 l-30 23 75 6 c41 3 78 6 83 7 4 1 7 -4 7 -12z"/>
 <path d="M471 3501 c-14 -9 31 -48 119 -100 125 -75 143 -118 89 -218 -29 -55 -32 -65 -21 -83 10 -17 10 -24 -3 -43 -25 -36 -24 -39 70 -166 5 -7 25 -29 43 -48 l32 -35 0 -1394 c0 -1387 0 -1394 20 -1394 20 0 20 7 20 1398 l0 1399 25 23 c14 13 25 29 25 36 0 7 25 36 55 65 30 29 55 59 55 68 0 9 -9 34 -19 56 -18 39 -18 41 1 79 19 38 19 38 -1 60 -12 13 -26 38 -31 57 -14 46 7 73 99 125 40 23 72 45 72 48 1 28 -12 27 -82 -1 -67 -29 -76 -36 -99 -79 l-25 -48 -63 3 c-35 1 -69 -2 -76 -8 -18 -15 -46 -3 -46 19 0 11 -4 21 -9 24 -5 3 -7 14 -4 24 6 23 -9 35 -77 58 -30 10 -59 25 -63 32 -5 7 -12 10 -17 7 -5 -3 -11 -1 -15 5 -11 18 -61 39 -74 31z m468 -305 c13 -15 10 -16 -81 -32 -51 -8 -139 13 -131 32 7 20 195 20 212 0z m-67 -69 c41 7 57 6 55 -1 -2 -7 -46 -12 -115 -14 -104 -2 -112 -1 -112 16 0 18 3 18 57 4 43 -11 71 -12 115 -5z m65 -64 c9 -26 -120 -34 -184 -11 l-38 13 80 6 c107 8 138 6 142 -8z m-193 -48 c57 -17 133 -19 172 -5 40 16 43 2 6 -31 -30 -27 -38 -29 -110 -29 -76 0 -77 1 -99 33 -20 29 -28 47 -20 47 1 0 24 -7 51 -15z m121 -115 c7 -12 -30 -50 -50 -50 -8 0 -25 10 -37 23 l-23 22 45 6 c25 3 48 7 52 7 4 1 9 -2 13 -8z"/>
 <path d="M9421 3286 c-13 -15 14 -33 148 -100 130 -66 150 -112 86 -202 -39 -55 -43 -69 -19 -78 15 -6 15 -9 -5 -29 -11 -13 -21 -30 -21 -38 0 -8 24 -40 53 -71 28 -31 57 -65 63 -75 6 -10 25 -25 42 -33 l32 -15 2 -1320 c3 -1165 5 -1320 18 -1320 13 0 15 154 18 1320 l2 1320 31 18 c17 9 33 26 36 36 3 11 32 40 64 66 32 25 59 54 59 63 0 9 -9 32 -20 50 l-20 33 21 41 c19 37 19 42 5 50 -20 11 -46 60 -46 87 0 26 49 63 130 96 77 32 82 36 70 54 -7 12 -20 10 -82 -12 -40 -15 -81 -27 -90 -27 -10 0 -21 -13 -28 -34 -17 -53 -33 -61 -117 -57 -44 2 -79 -2 -87 -8 -16 -14 -46 -4 -47 15 -3 28 -4 32 -13 41 -6 5 -6 2 -1 -7 5 -9 4 -12 -1 -7 -4 4 -9 17 -9 28 0 17 -16 26 -87 49 -48 15 -107 39 -132 54 -36 21 -46 23 -55 12z m544 -286 c11 -17 -26 -24 -125 -25 -98 0 -136 7 -125 25 4 6 56 10 125 10 69 0 121 -4 125 -10z m-170 -66 c28 -3 76 -1 107 4 49 7 56 7 46 -5 -16 -20 -259 -14 -266 6 -4 11 2 13 29 7 19 -4 57 -10 84 -12z m170 -53 c8 -13 -59 -31 -117 -31 -25 0 -70 6 -100 13 l-53 12 75 6 c128 9 189 9 195 0z m-208 -57 c63 -15 114 -14 193 2 24 5 24 4 -8 -25 -31 -30 -35 -31 -125 -31 -84 0 -96 2 -114 23 -47 52 -45 54 54 31z m108 -124 c-11 -12 -31 -20 -50 -20 -19 0 -39 8 -50 20 -18 20 -17 20 50 20 67 0 68 0 50 -20z"/>
 <path d="M12737 3143 c-14 -14 -4 -23 81 -79 48 -31 95 -66 104 -78 26 -31 22 -90 -9 -143 -22 -38 -24 -48 -14 -65 10 -16 10 -23 -3 -37 -9 -10 -16 -23 -16 -30 0 -15 85 -135 123 -172 l27 -27 0 -1256 c0 -1249 0 -1256 20 -1256 20 0 20 7 20 1261 l0 1261 23 30 c12 16 44 54 71 84 l50 55 -18 49 c-16 45 -16 51 -1 80 15 29 15 32 -4 56 -11 14 -23 39 -26 55 -9 39 12 62 95 109 55 31 69 47 54 62 -3 3 -36 -8 -74 -25 -61 -27 -70 -35 -85 -72 l-16 -43 -63 5 c-41 4 -66 2 -70 -6 -4 -6 -12 -11 -17 -11 -12 0 -33 49 -30 71 2 21 -14 33 -64 49 -39 12 -76 31 -127 64 -13 9 -28 13 -31 9z m420 -276 c8 -14 -4 -20 -59 -28 -46 -7 -121 1 -135 14 -3 3 -2 11 2 17 8 13 184 10 192 -3z m-85 -61 c43 1 75 -2 72 -7 -3 -5 -50 -9 -105 -9 -82 0 -99 3 -99 15 0 12 6 14 28 8 15 -5 62 -7 104 -7z m82 -55 c7 -11 -47 -31 -86 -31 -16 0 -50 6 -76 13 l-47 12 55 6 c90 10 148 10 154 0z m-71 -55 l78 1 -26 -26 c-22 -23 -34 -26 -96 -26 -68 0 -70 1 -91 34 l-22 34 40 -9 c21 -5 74 -9 117 -8z m7 -105 c0 -33 -82 -41 -88 -8 -3 14 4 17 42 17 25 0 46 -4 46 -9z"/>
 <path d="M15111 3071 c-14 -9 14 -36 79 -77 82 -51 110 -83 110 -126 0 -22 -9 -57 -21 -80 -14 -26 -19 -51 -15 -69 3 -16 1 -31 -4 -34 -21 -13 -8 -53 41 -125 28 -41 57 -79 65 -83 12 -7 14 -184 14 -1242 0 -1228 0 -1235 20 -1235 20 0 20 7 20 1233 0 1216 0 1234 20 1252 11 10 22 27 26 39 4 11 26 42 50 68 l43 46 -16 42 c-14 34 -14 47 -4 75 10 29 9 38 -9 67 -39 65 -18 108 81 158 43 22 55 38 42 51 -6 6 -32 -1 -70 -18 -49 -23 -64 -36 -80 -68 l-19 -40 -74 -6 c-41 -3 -77 -5 -78 -3 -2 1 -6 21 -9 44 -4 26 -12 44 -22 47 -27 9 -114 52 -147 72 -17 10 -36 16 -43 12z m394 -270 c6 -10 -9 -16 -67 -26 -41 -6 -118 10 -118 25 0 13 177 13 185 1z m-78 -55 c40 0 70 -3 67 -8 -3 -4 -48 -8 -100 -8 -77 0 -94 3 -94 15 0 12 6 14 28 8 15 -5 59 -8 99 -7z m77 -55 c7 -11 -47 -31 -83 -31 -14 0 -44 6 -66 12 l-40 12 45 7 c71 10 138 10 144 0z m-83 -61 c21 0 49 4 63 10 32 12 33 4 4 -27 -19 -20 -31 -23 -93 -23 -67 0 -71 1 -88 29 -9 16 -17 31 -17 34 0 3 21 -1 47 -9 25 -8 63 -14 84 -14z m19 -93 c0 -37 -62 -51 -80 -18 -9 18 -6 20 27 24 21 2 41 4 46 5 4 1 7 -4 7 -11z"/>
 <path d="M6682 3008 c2 -7 40 -37 84 -65 43 -29 87 -62 97 -74 24 -30 21 -71 -9 -131 -19 -38 -24 -56 -16 -68 7 -10 5 -23 -6 -41 -14 -25 -13 -29 18 -75 19 -27 40 -53 47 -57 7 -4 13 -14 13 -22 0 -7 11 -22 25 -33 l25 -20 0 -1211 c0 -1070 2 -1211 15 -1211 13 0 15 142 15 1214 l0 1214 25 16 c14 9 25 22 25 28 0 6 23 35 50 64 l51 53 -16 38 c-9 21 -17 40 -18 43 -1 3 4 19 12 37 12 29 11 35 -8 62 -44 62 -25 101 77 157 33 18 51 35 49 44 -2 8 -7 14 -13 13 -17 -4 -129 -53 -121 -53 4 0 -3 -19 -16 -42 l-24 -43 -57 3 c-34 3 -62 -1 -71 -8 -18 -15 -35 -5 -35 20 0 10 -4 22 -10 25 -5 3 -10 17 -10 29 0 19 -8 26 -42 34 -24 6 -65 25 -91 42 -51 32 -71 38 -65 18z m398 -255 c44 -15 -112 -31 -167 -17 -12 3 -19 12 -17 18 4 9 28 12 87 9 45 -3 89 -7 97 -10z m-71 -56 c46 1 70 -2 64 -8 -16 -16 -195 -7 -201 10 -3 10 3 11 29 5 19 -5 67 -8 108 -7z m71 -56 c0 -17 -82 -27 -132 -18 -26 5 -45 13 -42 18 7 12 174 11 174 0z m-129 -53 c34 -8 59 -8 90 0 24 6 44 10 46 9 1 -2 -9 -15 -23 -30 -22 -24 -32 -27 -93 -27 -69 0 -69 0 -90 36 l-22 37 23 -7 c13 -4 44 -12 69 -18z m69 -96 c0 -15 -24 -32 -45 -32 -21 0 -45 17 -45 32 0 4 20 8 45 8 25 0 45 -4 45 -8z"/>
 <path d="M4270 2570 c0 -10 31 -31 131 -90 56 -32 89 -72 89 -106 0 -9 -14 -42 -31 -72 -24 -43 -28 -57 -18 -68 9 -11 8 -18 -5 -32 -9 -10 -16 -22 -16 -27 0 -14 112 -155 131 -166 18 -9 19 -44 19 -1009 0 -882 2 -1000 15 -1000 13 0 15 118 15 998 l0 999 24 11 c13 6 27 20 31 31 3 12 29 43 57 70 l52 48 -18 38 c-16 33 -17 43 -6 76 11 34 11 40 -9 65 -27 35 -27 75 2 101 12 11 50 35 84 53 35 18 60 36 57 41 -8 14 -24 11 -89 -15 -51 -21 -63 -30 -79 -66 -15 -30 -25 -40 -38 -37 -9 3 -45 2 -80 -2 -56 -7 -64 -6 -80 13 -9 12 -15 30 -12 42 4 17 -2 23 -38 33 -24 7 -71 28 -106 47 -66 36 -82 40 -82 24z m435 -251 c13 -19 -6 -24 -100 -24 -51 0 -96 3 -100 7 -19 19 13 28 100 28 56 0 97 -4 100 -11z m-78 -57 c40 3 73 1 73 -3 0 -12 -77 -21 -150 -17 -51 2 -65 7 -68 20 -3 15 1 15 35 6 21 -6 71 -8 110 -6z m78 -57 c0 -20 -98 -28 -161 -14 l-59 14 90 6 c114 7 130 6 130 -6z m-62 -51 c26 4 55 10 65 13 11 4 7 -5 -12 -25 -28 -31 -33 -32 -107 -32 -72 0 -79 2 -98 26 -12 15 -21 30 -21 34 0 4 28 1 63 -7 37 -9 81 -12 110 -9z m-13 -104 c-13 -25 -62 -31 -84 -10 -17 16 6 30 50 30 42 0 44 -1 34 -20z"/>
 <path d="M8471 2494 c6 -8 38 -30 70 -50 64 -38 99 -76 99 -106 0 -10 -9 -37 -20 -59 -12 -22 -18 -49 -15 -59 3 -10 1 -27 -6 -38 -10 -16 -5 -29 36 -86 26 -37 54 -70 62 -73 11 -4 13 -175 13 -999 0 -877 2 -994 15 -994 13 0 15 117 15 995 0 867 2 997 15 1013 8 9 34 38 56 65 41 46 42 48 30 85 -9 28 -10 44 -1 66 8 23 8 32 -4 45 -42 49 -27 83 55 128 31 16 47 32 46 43 -1 16 -5 15 -46 -6 -24 -13 -53 -24 -64 -24 -11 0 -18 -3 -14 -6 3 -4 0 -19 -8 -33 -12 -24 -20 -28 -66 -30 -29 -1 -56 -4 -61 -7 -4 -3 -8 2 -8 10 0 9 -4 16 -10 16 -5 0 -9 3 -9 8 4 22 -3 42 -14 42 -7 0 -41 15 -77 32 -72 36 -108 45 -89 22z m334 -204 c3 -5 -5 -12 -18 -15 -37 -10 -120 -1 -125 13 -5 15 133 18 143 2z m-5 -52 c0 -5 -36 -8 -80 -8 -44 0 -80 3 -80 8 0 4 36 7 80 7 44 0 80 -3 80 -7z m0 -48 c-18 -12 -107 -12 -135 0 -13 6 8 9 65 9 58 1 80 -2 70 -9z m-53 -35 c58 0 61 -1 45 -16 -25 -24 -118 -31 -135 -10 -30 35 -30 42 0 34 15 -4 56 -8 90 -8z m3 -90 c-7 -8 -23 -15 -36 -15 -15 0 -24 6 -24 15 0 11 11 15 36 15 31 0 35 -2 24 -15z"/>
 <path d="M1900 2305 c0 -3 2 -5 5 -5 3 0 5 2 5 5 0 3 -2 5 -5 5 -3 0 -5 -2 -5 -5z"/>
 <path d="M2000 2305 c0 -3 2 -5 5 -5 3 0 5 2 5 5 0 3 -2 5 -5 5 -3 0 -5 -2 -5 -5z"/>
 <path d="M2043 2303 c4 -3 10 -3 14 0 3 4 0 7 -7 7 -7 0 -10 -3 -7 -7z"/>
 <path d="M2075 2290 c3 -5 8 -10 11 -10 3 0 2 5 -1 10 -3 6 -8 10 -11 10 -3 0 -2 -4 1 -10z"/>
 <path d="M14000 2290 c0 -6 21 -23 47 -38 66 -38 113 -85 113 -114 0 -13 -8 -35 -17 -48 -10 -14 -18 -38 -19 -55 -1 -16 -5 -37 -8 -46 -5 -10 6 -33 28 -63 20 -25 36 -50 36 -56 0 -5 9 -14 20 -20 20 -11 20 -21 20 -930 0 -811 2 -920 15 -920 13 0 15 109 15 920 0 800 2 922 15 938 8 9 34 39 57 65 36 42 40 51 30 68 -14 22 -15 58 -2 79 6 10 4 20 -5 30 -7 8 -16 27 -20 41 -7 28 18 55 85 92 48 26 25 40 -32 19 -34 -12 -50 -25 -62 -48 -14 -30 -19 -32 -73 -36 -63 -4 -73 2 -73 45 0 21 -5 27 -21 27 -11 0 -46 14 -76 30 -58 32 -73 36 -73 20z m310 -199 c0 -13 -67 -23 -101 -16 -51 11 -31 25 36 25 36 0 65 -4 65 -9z m-81 -47 c2 -2 -12 -4 -32 -4 -20 0 -39 5 -42 11 -5 7 5 8 32 3 21 -4 40 -8 42 -10z m69 -1 c-10 -2 -26 -2 -35 0 -10 3 -2 5 17 5 19 0 27 -2 18 -5z m12 -43 c-18 -12 -98 -12 -125 0 -13 6 6 9 60 9 55 1 75 -2 65 -9z m-46 -34 l59 0 -23 -18 c-34 -28 -117 -22 -138 10 -15 23 -15 23 14 15 16 -4 55 -8 88 -7z m0 -81 c-7 -16 -49 -21 -58 -6 -7 11 10 19 41 20 16 1 21 -3 17 -14z"/>
 <path d="M1870 2270 c0 -7 3 -10 7 -7 3 4 3 10 0 14 -4 3 -7 0 -7 -7z"/>
 <path d="M2125 2270 c3 -5 8 -10 11 -10 3 0 2 5 -1 10 -3 6 -8 10 -11 10 -3 0 -2 -4 1 -10z"/>
 <path d="M1922 2240 c0 -14 2 -19 5 -12 2 6 2 18 0 25 -3 6 -5 1 -5 -13z"/>
 <path d="M2015 2237 c-4 -10 -5 -21 -1 -24 10 -10 18 4 13 24 -4 17 -4 17 -12 0z"/>
 <path d="M2110 2235 c0 -3 2 -5 5 -5 3 0 5 2 5 5 0 3 -2 5 -5 5 -3 0 -5 -2 -5 -5z"/>
 <path d="M1871 2214 c0 -11 3 -14 6 -6 3 7 2 16 -1 19 -3 4 -6 -2 -5 -13z"/>
 <path d="M1960 2215 c0 -3 2 -5 5 -5 3 0 5 2 5 5 0 3 -2 5 -5 5 -3 0 -5 -2 -5 -5z"/>
 <path d="M2067 2213 c-4 -3 -7 -11 -7 -17 0 -6 5 -5 12 2 6 6 9 14 7 17 -3 3 -9 2 -12 -2z"/>
 <path d="M2100 2215 c0 -3 2 -5 5 -5 3 0 5 2 5 5 0 3 -2 5 -5 5 -3 0 -5 -2 -5 -5z"/>
 <path d="M2200 2205 c0 -3 2 -5 5 -5 3 0 5 2 5 5 0 3 -2 5 -5 5 -3 0 -5 -2 -5 -5z"/>
 <path d="M1900 2195 c0 -3 2 -5 5 -5 3 0 5 2 5 5 0 3 -2 5 -5 5 -3 0 -5 -2 -5 -5z"/>
 <path d="M1990 2195 c0 -3 2 -5 5 -5 3 0 5 2 5 5 0 3 -2 5 -5 5 -3 0 -5 -2 -5 -5z"/>
 <path d="M2093 2193 c4 -3 10 -3 14 0 3 4 0 7 -7 7 -7 0 -10 -3 -7 -7z"/>
 <path d="M1920 2185 c0 -3 2 -5 5 -5 3 0 5 2 5 5 0 3 -2 5 -5 5 -3 0 -5 -2 -5 -5z"/>
 <path d="M1950 2185 c0 -3 2 -5 5 -5 3 0 5 2 5 5 0 3 -2 5 -5 5 -3 0 -5 -2 -5 -5z"/>
 <path d="M2035 2180 c3 -5 8 -10 11 -10 3 0 2 5 -1 10 -3 6 -8 10 -11 10 -3 0 -2 -4 1 -10z"/>
 <path d="M2172 2170 c0 -14 2 -19 5 -12 2 6 2 18 0 25 -3 6 -5 1 -5 -13z"/>
 <path d="M2010 2175 c0 -3 2 -5 5 -5 3 0 5 2 5 5 0 3 -2 5 -5 5 -3 0 -5 -2 -5 -5z"/>
 <path d="M2060 2165 c0 -3 2 -5 5 -5 3 0 5 2 5 5 0 3 -2 5 -5 5 -3 0 -5 -2 -5 -5z"/>
 <path d="M2100 2165 c0 -3 2 -5 5 -5 3 0 5 2 5 5 0 3 -2 5 -5 5 -3 0 -5 -2 -5 -5z"/>
 <path d="M2134 2158 c-4 -7 -3 -8 4 -4 12 7 16 16 8 16 -3 0 -8 -5 -12 -12z"/>
 <path d="M10550 2165 c0 -3 2 -5 5 -5 3 0 5 2 5 5 0 3 -2 5 -5 5 -3 0 -5 -2 -5 -5z"/>
 <path d="M10600 2165 c0 -3 2 -5 5 -5 3 0 5 2 5 5 0 3 -2 5 -5 5 -3 0 -5 -2 -5 -5z"/>
 <path d="M10633 2163 c4 -3 10 -3 14 0 3 4 0 7 -7 7 -7 0 -10 -3 -7 -7z"/>
 <path d="M10675 2160 c3 -5 8 -10 11 -10 3 0 2 5 -1 10 -3 6 -8 10 -11 10 -3 0 -2 -4 1 -10z"/>
 <path d="M1880 2155 c0 -3 2 -5 5 -5 3 0 5 2 5 5 0 3 -2 5 -5 5 -3 0 -5 -2 -5 -5z"/>
 <path d="M10700 2155 c0 -3 2 -5 5 -5 3 0 5 2 5 5 0 3 -2 5 -5 5 -3 0 -5 -2 -5 -5z"/>
 <path d="M1910 2140 c0 -7 3 -10 7 -7 3 4 3 10 0 14 -4 3 -7 0 -7 -7z"/>
 <path d="M2190 2145 c0 -3 2 -5 5 -5 3 0 5 2 5 5 0 3 -2 5 -5 5 -3 0 -5 -2 -5 -5z"/>
 <path d="M10530 2145 c0 -3 2 -5 5 -5 3 0 5 2 5 5 0 3 -2 5 -5 5 -3 0 -5 -2 -5 -5z"/>
 <path d="M10620 2145 c0 -3 2 -5 5 -5 3 0 5 2 5 5 0 3 -2 5 -5 5 -3 0 -5 -2 -5 -5z"/>
 <path d="M10660 2140 c0 -7 3 -10 7 -7 3 4 3 10 0 14 -4 3 -7 0 -7 -7z"/>
 <path d="M10570 2125 c0 -3 2 -5 5 -5 3 0 5 2 5 5 0 3 -2 5 -5 5 -3 0 -5 -2 -5 -5z"/>
 <path d="M10600 2125 c0 -3 2 -5 5 -5 3 0 5 2 5 5 0 3 -2 5 -5 5 -3 0 -5 -2 -5 -5z"/>
 <path d="M10640 2120 c0 -7 3 -10 7 -7 3 4 3 10 0 14 -4 3 -7 0 -7 -7z"/>
 <path d="M10772 2110 c0 -14 2 -19 5 -12 2 6 2 18 0 25 -3 6 -5 1 -5 -13z"/>
 <path d="M10530 2110 c0 -7 3 -10 7 -7 3 4 3 10 0 14 -4 3 -7 0 -7 -7z"/>
 <path d="M10700 2115 c0 -3 2 -5 5 -5 3 0 5 2 5 5 0 3 -2 5 -5 5 -3 0 -5 -2 -5 -5z"/>
 <path d="M1890 2105 c0 -3 2 -5 5 -5 3 0 5 2 5 5 0 3 -2 5 -5 5 -3 0 -5 -2 -5 -5z"/>
 <path d="M2160 2105 c0 -3 2 -5 5 -5 3 0 5 2 5 5 0 3 -2 5 -5 5 -3 0 -5 -2 -5 -5z"/>
 <path d="M10670 2105 c0 -3 2 -5 5 -5 3 0 5 2 5 5 0 3 -2 5 -5 5 -3 0 -5 -2 -5 -5z"/>
 <path d="M2180 2095 c0 -3 2 -5 5 -5 3 0 5 2 5 5 0 3 -2 5 -5 5 -3 0 -5 -2 -5 -5z"/>
 <path d="M10600 2090 c-9 -6 -10 -10 -3 -10 6 0 15 5 18 10 8 12 4 12 -15 0z"/>
 <path d="M10690 2095 c0 -3 2 -5 5 -5 3 0 5 2 5 5 0 3 -2 5 -5 5 -3 0 -5 -2 -5 -5z"/>
 <path d="M10750 2095 c0 -3 2 -5 5 -5 3 0 5 2 5 5 0 3 -2 5 -5 5 -3 0 -5 -2 -5 -5z"/>
 <path d="M1922 2070 c0 -14 2 -19 5 -12 2 6 2 18 0 25 -3 6 -5 1 -5 -13z"/>
 <path d="M10560 2085 c0 -3 2 -5 5 -5 3 0 5 2 5 5 0 3 -2 5 -5 5 -3 0 -5 -2 -5 -5z"/>
 <path d="M10657 2079 c7 -7 15 -10 18 -7 3 3 -2 9 -12 12 -14 6 -15 5 -6 -5z"/>
 <path d="M10730 2085 c0 -3 2 -5 5 -5 3 0 5 2 5 5 0 3 -2 5 -5 5 -3 0 -5 -2 -5 -5z"/>
 <path d="M2150 2065 c0 -3 2 -5 5 -5 3 0 5 2 5 5 0 3 -2 5 -5 5 -3 0 -5 -2 -5 -5z"/>
 <path d="M10540 2065 c0 -3 2 -5 5 -5 3 0 5 2 5 5 0 3 -2 5 -5 5 -3 0 -5 -2 -5 -5z"/>
 <path d="M10561 2054 c0 -11 3 -14 6 -6 3 7 2 16 -1 19 -3 4 -6 -2 -5 -13z"/>
 <path d="M10703 2063 c4 -3 10 -3 14 0 3 4 0 7 -7 7 -7 0 -10 -3 -7 -7z"/>
 <path d="M2171 2044 c0 -11 3 -14 6 -6 3 7 2 16 -1 19 -3 4 -6 -2 -5 -13z"/>
 <path d="M10760 2050 c0 -7 3 -10 7 -7 3 4 3 10 0 14 -4 3 -7 0 -7 -7z"/>
 <path d="M1900 2045 c0 -3 2 -5 5 -5 3 0 5 2 5 5 0 3 -2 5 -5 5 -3 0 -5 -2 -5 -5z"/>
 <path d="M10740 2040 c0 -7 3 -10 7 -7 3 4 3 10 0 14 -4 3 -7 0 -7 -7z"/>
 <path d="M10550 2010 c0 -7 3 -10 7 -7 3 4 3 10 0 14 -4 3 -7 0 -7 -7z"/>
 <path d="M2160 2005 c0 -3 2 -5 5 -5 3 0 5 2 5 5 0 3 -2 5 -5 5 -3 0 -5 -2 -5 -5z"/>
 <path d="M10571 1994 c0 -11 3 -14 6 -6 3 7 2 16 -1 19 -3 4 -6 -2 -5 -13z"/>
 <path d="M10730 2000 c0 -7 3 -10 7 -7 3 4 3 10 0 14 -4 3 -7 0 -7 -7z"/>
 <path d="M10750 2005 c0 -3 2 -5 5 -5 3 0 5 2 5 5 0 3 -2 5 -5 5 -3 0 -5 -2 -5 -5z"/>
 <path d="M1930 1995 c0 -3 2 -5 5 -5 3 0 5 2 5 5 0 3 -2 5 -5 5 -3 0 -5 -2 -5 -5z"/>
 <path d="M2130 1995 c0 -3 2 -5 5 -5 3 0 5 2 5 5 0 3 -2 5 -5 5 -3 0 -5 -2 -5 -5z"/>
 <path d="M1910 1985 c0 -3 2 -5 5 -5 3 0 5 2 5 5 0 3 -2 5 -5 5 -3 0 -5 -2 -5 -5z"/>
 <path d="M10740 1975 c0 -3 2 -5 5 -5 3 0 5 2 5 5 0 3 -2 5 -5 5 -3 0 -5 -2 -5 -5z"/>
 <path d="M2120 1960 c0 -7 3 -10 7 -7 3 4 3 10 0 14 -4 3 -7 0 -7 -7z"/>
 <path d="M10561 1954 c0 -11 3 -14 6 -6 3 7 2 16 -1 19 -3 4 -6 -2 -5 -13z"/>
 <path d="M10720 1965 c0 -3 2 -5 5 -5 3 0 5 2 5 5 0 3 -2 5 -5 5 -3 0 -5 -2 -5 -5z"/>
 <path d="M10581 1934 c0 -11 3 -14 6 -6 3 7 2 16 -1 19 -3 4 -6 -2 -5 -13z"/>
 <path d="M10730 1940 c0 -7 3 -10 7 -7 3 4 3 10 0 14 -4 3 -7 0 -7 -7z"/>
 <path d="M1940 1935 c0 -3 2 -5 5 -5 3 0 5 2 5 5 0 3 -2 5 -5 5 -3 0 -5 -2 -5 -5z"/>
 <path d="M10710 1935 c0 -3 2 -5 5 -5 3 0 5 2 5 5 0 3 -2 5 -5 5 -3 0 -5 -2 -5 -5z"/>
 <path d="M1755 1919 c-10 -15 10 -34 86 -85 57 -38 70 -52 79 -84 9 -33 7 -46 -15 -95 -21 -45 -24 -59 -14 -71 9 -11 8 -18 -5 -32 -9 -10 -16 -21 -16 -25 0 -12 63 -107 71 -107 5 0 9 -6 9 -13 0 -8 9 -22 20 -32 20 -18 20 -31 20 -697 0 -596 2 -678 15 -678 13 0 15 82 15 679 0 596 2 680 15 685 8 3 21 18 27 33 7 15 30 46 50 68 43 46 43 44 23 90 -12 30 -12 40 -1 67 12 28 11 35 -5 62 -37 61 -23 93 69 150 23 14 42 33 42 41 0 19 5 20 -64 -15 -48 -25 -63 -38 -79 -73 -11 -23 -21 -37 -23 -32 -2 6 -23 9 -45 7 -28 -3 -44 0 -50 9 -7 11 -9 10 -9 -3 0 -12 -5 -15 -16 -11 -8 3 -13 12 -10 19 3 8 2 14 -3 14 -4 0 -5 14 -3 31 3 22 1 30 -7 25 -18 -11 -77 12 -126 50 -26 19 -47 29 -50 23z m350 -250 c10 -16 1 -21 -49 -26 -60 -7 -116 4 -116 22 0 12 17 15 79 15 46 0 83 -5 86 -11z m-64 -57 c32 2 59 1 59 -3 0 -9 -157 -22 -170 -14 -5 3 -10 12 -10 20 0 11 6 12 31 3 16 -6 57 -8 90 -6z m64 -52 c3 -5 -7 -12 -22 -16 -15 -3 -34 -7 -41 -10 -7 -2 -36 2 -65 8 l-52 12 35 7 c55 10 138 10 145 -1z m-72 -45 c42 0 77 -3 77 -6 0 -21 -42 -38 -99 -41 -64 -3 -65 -3 -84 31 l-20 33 24 -8 c13 -5 59 -9 102 -9z m11 -108 c-8 -22 -32 -29 -55 -17 -30 16 -23 28 19 32 45 4 44 4 36 -15z"/>
 <path d="M1922 1910 c0 -14 2 -19 5 -12 2 6 2 18 0 25 -3 6 -5 1 -5 -13z"/>
 <path d="M2110 1920 c0 -7 3 -10 7 -7 3 4 3 10 0 14 -4 3 -7 0 -7 -7z"/>
 <path d="M10444 1909 c-4 -8 43 -49 57 -49 4 0 21 -12 38 -26 35 -29 40 -61 15 -99 -9 -14 -13 -32 -10 -41 4 -9 1 -22 -5 -30 -8 -10 -3 -24 19 -57 17 -24 37 -49 46 -56 14 -12 16 -92 16 -777 0 -672 2 -764 15 -764 13 0 15 92 15 764 0 666 2 765 15 776 8 7 15 18 15 25 0 6 13 24 30 38 26 23 28 30 20 53 -6 14 -8 35 -4 48 3 12 -2 34 -10 50 -19 37 -14 47 39 81 38 24 57 45 40 45 -23 0 -88 -37 -95 -54 -5 -15 -18 -22 -41 -24 -19 -1 -41 -5 -51 -8 -12 -3 -18 3 -23 23 -5 22 -19 34 -71 59 -36 17 -67 27 -70 23z m251 -169 c-3 -5 -26 -10 -50 -10 -24 0 -47 5 -50 10 -4 6 15 10 50 10 35 0 54 -4 50 -10z m-82 -37 c-7 -2 -21 -2 -30 0 -10 3 -4 5 12 5 17 0 24 -2 18 -5z m70 0 c-7 -2 -19 -2 -25 0 -7 3 -2 5 12 5 14 0 19 -2 13 -5z m7 -33 c-8 -5 -31 -10 -50 -10 -26 0 -31 3 -20 10 8 5 31 10 50 10 26 0 31 -3 20 -10z m-25 -33 c37 2 39 1 21 -12 -24 -18 -87 -20 -104 -3 -20 20 -14 29 16 21 15 -4 45 -7 67 -6z m-10 -67 c-3 -5 -15 -10 -26 -10 -10 0 -19 5 -19 10 0 6 12 10 26 10 14 0 23 -4 19 -10z"/>
 <path d="M2130 1905 c0 -3 2 -5 5 -5 3 0 5 2 5 5 0 3 -2 5 -5 5 -3 0 -5 -2 -5 -5z"/>
 <path d="M10700 1900 c0 -7 3 -10 7 -7 3 4 3 10 0 14 -4 3 -7 0 -7 -7z"/>
 <path d="M10720 1905 c0 -3 2 -5 5 -5 3 0 5 2 5 5 0 3 -2 5 -5 5 -3 0 -5 -2 -5 -5z"/>
 <path d="M10570 1890 c0 -7 3 -10 7 -7 3 4 3 10 0 14 -4 3 -7 0 -7 -7z"/>
 <path d="M1950 1885 c0 -3 2 -5 5 -5 3 0 5 2 5 5 0 3 -2 5 -5 5 -3 0 -5 -2 -5 -5z"/>
 <path d="M2100 1885 c0 -3 2 -5 5 -5 3 0 5 2 5 5 0 3 -2 5 -5 5 -3 0 -5 -2 -5 -5z"/>
 <path d="M10590 1880 c0 -7 3 -10 7 -7 3 4 3 10 0 14 -4 3 -7 0 -7 -7z"/>
 <path d="M2120 1870 c0 -7 3 -10 7 -7 3 4 3 10 0 14 -4 3 -7 0 -7 -7z"/>
 <path d="M5620 1871 c0 -8 18 -21 133 -95 41 -26 63 -48 74 -74 15 -35 14 -38 -16 -100 -25 -51 -29 -67 -20 -78 9 -11 8 -18 -5 -32 -9 -10 -16 -22 -16 -27 0 -10 71 -109 82 -113 4 -2 8 -10 8 -17 0 -8 11 -22 25 -33 l25 -20 0 -641 c0 -563 2 -641 15 -641 13 0 15 78 15 638 l0 638 30 22 c17 13 30 28 30 34 0 7 23 35 51 64 l50 51 -17 41 c-14 37 -15 46 -2 78 14 35 14 38 -9 62 -14 15 -23 37 -23 58 0 37 19 55 104 100 31 16 56 33 56 37 0 19 -30 16 -83 -8 -53 -25 -78 -49 -83 -84 -2 -8 -10 -21 -18 -30 -12 -12 -18 -13 -28 -3 -15 15 -100 16 -115 1 -8 -8 -16 -2 -29 22 -10 19 -17 42 -15 52 1 9 -4 17 -11 17 -19 0 -154 66 -162 79 -8 13 -46 15 -46 2z m420 -266 c1 -15 -78 -27 -137 -20 -37 5 -53 11 -53 21 0 12 17 14 95 12 54 -2 95 -7 95 -13z m-78 -49 c43 1 75 -3 72 -7 -7 -12 -201 -12 -208 0 -9 15 6 21 33 13 14 -4 61 -7 103 -6z m83 -55 c6 -10 -55 -31 -92 -31 -12 0 -45 5 -74 12 -45 11 -49 13 -28 19 37 11 187 10 194 0z m-70 -58 c22 3 51 9 65 13 l25 7 -28 -30 c-24 -26 -37 -31 -100 -37 -70 -7 -73 -6 -94 21 -37 46 -30 53 35 36 31 -8 75 -13 97 -10z m5 -92 c0 -16 -30 -41 -49 -41 -25 0 -57 36 -39 43 23 9 88 7 88 -2z"/>
 <path d="M10690 1875 c0 -3 2 -5 5 -5 3 0 5 2 5 5 0 3 -2 5 -5 5 -3 0 -5 -2 -5 -5z"/>
 <path d="M10710 1875 c0 -3 2 -5 5 -5 3 0 5 2 5 5 0 3 -2 5 -5 5 -3 0 -5 -2 -5 -5z"/>
 <path d="M10680 1845 c0 -3 2 -5 5 -5 3 0 5 2 5 5 0 3 -2 5 -5 5 -3 0 -5 -2 -5 -5z"/>
 <path d="M1960 1825 c0 -3 2 -5 5 -5 3 0 5 2 5 5 0 3 -2 5 -5 5 -3 0 -5 -2 -5 -5z"/>
 <path d="M10600 1825 c0 -3 2 -5 5 -5 3 0 5 2 5 5 0 3 -2 5 -5 5 -3 0 -5 -2 -5 -5z"/>
 <path d="M2070 1800 c0 -7 3 -10 7 -7 3 4 3 10 0 14 -4 3 -7 0 -7 -7z"/>
 </g>
<g id="layer107" fill="#aeaeae" stroke="none">
 <path d="M7845 5845 c-216 -58 -385 -213 -486 -445 -51 -116 -69 -212 -69 -369 0 -137 16 -241 49 -314 10 -23 24 -58 30 -78 14 -43 90 -160 135 -207 18 -20 38 -31 48 -29 9 3 27 -2 40 -11 13 -8 -4 13 -38 49 -33 35 -69 78 -80 94 -10 17 -21 32 -24 35 -14 14 -46 85 -76 172 -72 207 -67 420 13 619 114 283 332 450 588 452 391 2 697 -400 654 -862 -11 -121 -32 -198 -83 -307 -49 -103 -62 -121 -163 -221 -48 -48 -71 -77 -67 -88 3 -8 10 -15 14 -15 21 0 147 132 194 203 70 105 100 179 126 308 28 134 24 331 -9 454 -43 163 -148 329 -273 432 -64 53 -193 117 -266 132 -71 15 -195 13 -257 -4z"/>
 <path d="M11445 5286 c-186 -48 -346 -187 -436 -376 -60 -125 -79 -210 -79 -354 0 -140 15 -214 66 -330 54 -122 171 -275 189 -246 5 8 14 6 33 -6 16 -9 5 6 -25 37 -86 88 -101 110 -147 204 -59 119 -78 204 -79 340 0 128 17 209 67 318 86 190 215 308 395 364 188 58 376 18 534 -112 106 -88 195 -229 232 -370 24 -88 30 -229 15 -326 -27 -178 -155 -395 -276 -470 -30 -18 -32 -22 -19 -35 13 -14 18 -13 43 5 16 11 60 53 98 94 54 56 82 97 118 171 65 135 80 203 80 366 0 160 -14 220 -82 360 -78 159 -216 288 -370 347 -55 21 -88 26 -187 29 -78 2 -137 -1 -170 -10z"/>
 <path d="M3060 5065 c-8 -2 -55 -9 -105 -15 -200 -28 -401 -132 -525 -274 -204 -233 -199 -541 13 -772 71 -77 129 -118 174 -119 31 -2 30 -1 -25 38 -77 54 -107 83 -152 143 -132 176 -154 376 -63 563 43 89 163 216 256 270 405 238 967 140 1203 -209 44 -66 71 -135 83 -221 36 -236 -95 -459 -351 -599 -41 -23 -47 -29 -34 -39 33 -28 233 115 312 222 110 149 147 313 105 472 -27 105 -72 183 -154 271 -115 122 -288 214 -464 248 -81 15 -245 28 -273 21z"/>
 <path d="M8095 4840 c-3 -5 -1 -10 4 -10 6 0 11 5 11 10 0 6 -2 10 -4 10 -3 0 -8 -4 -11 -10z"/>
 <path d="M739 4646 c-94 -17 -189 -67 -271 -144 -84 -79 -130 -149 -172 -257 -30 -78 -31 -85 -31 -245 0 -162 1 -167 33 -248 17 -45 49 -108 71 -140 44 -64 98 -119 107 -109 4 3 16 1 28 -5 11 -6 -4 16 -34 48 -72 77 -114 144 -147 235 -24 66 -27 88 -27 214 -1 112 3 151 18 195 70 205 182 331 352 397 96 36 229 38 327 5 181 -63 324 -230 372 -436 19 -78 19 -234 1 -311 -32 -132 -124 -283 -211 -346 -27 -19 -41 -37 -38 -45 10 -26 27 -15 108 69 88 89 138 176 171 299 24 85 25 271 2 354 -69 250 -259 439 -478 474 -78 12 -95 12 -181 -4z"/>
 <path d="M7620 4376 c0 -2 8 -10 18 -17 15 -13 16 -12 3 4 -13 16 -21 21 -21 13z"/>
 <path d="M9745 4374 c-263 -43 -469 -203 -551 -428 -77 -213 -15 -446 164 -620 41 -39 54 -47 65 -38 8 7 17 9 20 6 3 -3 -29 30 -71 73 -145 146 -200 327 -157 511 51 216 228 387 457 442 244 58 505 -16 660 -189 55 -61 122 -187 137 -259 25 -119 6 -258 -51 -364 -39 -73 -132 -176 -198 -218 -46 -30 -66 -60 -38 -60 24 0 110 64 170 129 79 83 124 161 149 259 97 378 -208 742 -635 757 -50 2 -104 1 -121 -1z"/>
 <path d="M2923 4363 c15 -2 37 -2 50 0 12 2 0 4 -28 4 -27 0 -38 -2 -22 -4z"/>
 <path d="M3043 4363 c9 -2 23 -2 30 0 6 3 -1 5 -18 5 -16 0 -22 -2 -12 -5z"/>
 <path d="M2850 4335 c-13 -14 -22 -27 -19 -29 2 -2 14 10 27 25 29 36 24 38 -8 4z"/>
 <path d="M3113 4353 c4 -3 10 -3 14 0 3 4 0 7 -7 7 -7 0 -10 -3 -7 -7z"/>
 <path d="M3200 4355 c0 -3 2 -5 5 -5 3 0 5 2 5 5 0 3 -2 5 -5 5 -3 0 -5 -2 -5 -5z"/>
 <path d="M3225 4340 c3 -5 8 -10 11 -10 3 0 2 5 -1 10 -3 6 -8 10 -11 10 -3 0 -2 -4 1 -10z"/>
 <path d="M7665 4340 c3 -5 8 -10 11 -10 3 0 2 5 -1 10 -3 6 -8 10 -11 10 -3 0 -2 -4 1 -10z"/>
 <path d="M3053 4333 c4 -3 10 -3 14 0 3 4 0 7 -7 7 -7 0 -10 -3 -7 -7z"/>
 <path d="M3268 4333 c6 -2 18 -2 25 0 6 3 1 5 -13 5 -14 0 -19 -2 -12 -5z"/>
 <path d="M3070 4309 c-7 -11 -10 -23 -7 -25 2 -2 9 7 15 21 14 30 7 33 -8 4z"/>
 <path d="M3156 4317 c3 -10 9 -15 12 -12 3 3 0 11 -7 18 -10 9 -11 8 -5 -6z"/>
 <path d="M3192 4316 c7 -8 15 -12 17 -11 5 6 -10 25 -20 25 -5 0 -4 -6 3 -14z"/>
 <path d="M3310 4325 c0 -3 2 -5 5 -5 3 0 5 2 5 5 0 3 -2 5 -5 5 -3 0 -5 -2 -5 -5z"/>
 <path d="M7690 4325 c0 -3 2 -5 5 -5 3 0 5 2 5 5 0 3 -2 5 -5 5 -3 0 -5 -2 -5 -5z"/>
 <path d="M2923 4313 c4 -3 10 -3 14 0 3 4 0 7 -7 7 -7 0 -10 -3 -7 -7z"/>
 <path d="M3050 4315 c0 -3 2 -5 5 -5 3 0 5 2 5 5 0 3 -2 5 -5 5 -3 0 -5 -2 -5 -5z"/>
 <path d="M3378 4313 c7 -3 16 -2 19 1 4 3 -2 6 -13 5 -11 0 -14 -3 -6 -6z"/>
 <path d="M3433 4313 c4 -3 10 -3 14 0 3 4 0 7 -7 7 -7 0 -10 -3 -7 -7z"/>
 <path d="M7710 4315 c0 -3 2 -5 5 -5 3 0 5 2 5 5 0 3 -2 5 -5 5 -3 0 -5 -2 -5 -5z"/>
 <path d="M3000 4305 c0 -3 2 -5 5 -5 3 0 5 2 5 5 0 3 -2 5 -5 5 -3 0 -5 -2 -5 -5z"/>
 <path d="M3113 4303 c4 -3 10 -3 14 0 3 4 0 7 -7 7 -7 0 -10 -3 -7 -7z"/>
 <path d="M3265 4299 c-11 -16 -1 -19 13 -3 7 8 8 14 3 14 -5 0 -13 -5 -16 -11z"/>
 <path d="M2870 4295 c0 -3 2 -5 5 -5 3 0 5 2 5 5 0 3 -2 5 -5 5 -3 0 -5 -2 -5 -5z"/>
 <path d="M2912 4280 c0 -14 2 -19 5 -12 2 6 2 18 0 25 -3 6 -5 1 -5 -13z"/>
 <path d="M3021 4284 c0 -11 3 -14 6 -6 3 7 2 16 -1 19 -3 4 -6 -2 -5 -13z"/>
 <path d="M3460 4295 c0 -3 2 -5 5 -5 3 0 5 2 5 5 0 3 -2 5 -5 5 -3 0 -5 -2 -5 -5z"/>
 <path d="M3173 4283 c4 -3 10 -3 14 0 3 4 0 7 -7 7 -7 0 -10 -3 -7 -7z"/>
 <path d="M3373 4275 c-3 -9 -3 -19 1 -22 3 -4 6 1 6 10 0 9 11 17 28 20 l27 4 -28 2 c-17 0 -30 -5 -34 -14z"/>
 <path d="M2830 4270 c0 -7 3 -10 7 -7 3 4 3 10 0 14 -4 3 -7 0 -7 -7z"/>
 <path d="M2990 4270 c0 -7 3 -10 7 -7 3 4 3 10 0 14 -4 3 -7 0 -7 -7z"/>
 <path d="M3130 4275 c0 -3 2 -5 5 -5 3 0 5 2 5 5 0 3 -2 5 -5 5 -3 0 -5 -2 -5 -5z"/>
 <path d="M3220 4275 c0 -3 2 -5 5 -5 3 0 5 2 5 5 0 3 -2 5 -5 5 -3 0 -5 -2 -5 -5z"/>
 <path d="M2930 4255 c0 -3 2 -5 5 -5 3 0 5 2 5 5 0 3 -2 5 -5 5 -3 0 -5 -2 -5 -5z"/>
 <path d="M3120 4250 c0 -7 3 -10 7 -7 3 4 3 10 0 14 -4 3 -7 0 -7 -7z"/>
 <path d="M3194 4248 c-4 -7 -3 -8 4 -4 7 4 12 9 12 12 0 8 -9 4 -16 -8z"/>
 <path d="M3208 4238 c-10 -10 -14 -18 -9 -18 10 0 36 29 30 34 -2 1 -12 -6 -21 -16z"/>
 <path d="M3280 4250 c0 -7 3 -10 7 -7 3 4 3 10 0 14 -4 3 -7 0 -7 -7z"/>
 <path d="M3324 4248 c-4 -7 -3 -8 4 -4 7 4 12 9 12 12 0 8 -9 4 -16 -8z"/>
 <path d="M3000 4245 c0 -3 2 -5 5 -5 3 0 5 2 5 5 0 3 -2 5 -5 5 -3 0 -5 -2 -5 -5z"/>
 <path d="M3039 4233 c-12 -16 -12 -17 2 -6 9 7 19 10 22 6 4 -3 7 -1 7 5 0 17 -16 15 -31 -5z"/>
 <path d="M3260 4240 c0 -7 3 -10 7 -7 3 4 3 10 0 14 -4 3 -7 0 -7 -7z"/>
 <path d="M3421 4234 c0 -11 3 -14 6 -6 3 7 2 16 -1 19 -3 4 -6 -2 -5 -13z"/>
 <path d="M3461 4234 c0 -11 3 -14 6 -6 3 7 2 16 -1 19 -3 4 -6 -2 -5 -13z"/>
 <path d="M2893 4223 c4 -3 10 -3 14 0 3 4 0 7 -7 7 -7 0 -10 -3 -7 -7z"/>
 <path d="M2970 4225 c0 -3 2 -5 5 -5 3 0 5 2 5 5 0 3 -2 5 -5 5 -3 0 -5 -2 -5 -5z"/>
 <path d="M3316 4218 c3 -5 10 -6 15 -3 13 9 11 12 -6 12 -8 0 -12 -4 -9 -9z"/>
 <path d="M3356 4202 l-19 -27 24 22 c12 12 21 24 18 27 -2 2 -13 -8 -23 -22z"/>
 <path d="M2998 4213 c7 -3 16 -2 19 1 4 3 -2 6 -13 5 -11 0 -14 -3 -6 -6z"/>
 <path d="M3130 4215 c0 -3 2 -5 5 -5 3 0 5 2 5 5 0 3 -2 5 -5 5 -3 0 -5 -2 -5 -5z"/>
 <path d="M3150 4215 c0 -3 2 -5 5 -5 3 0 5 2 5 5 0 3 -2 5 -5 5 -3 0 -5 -2 -5 -5z"/>
 <path d="M3210 4195 c0 -3 2 -5 5 -5 3 0 5 2 5 5 0 3 -2 5 -5 5 -3 0 -5 -2 -5 -5z"/>
 <path d="M3270 4196 c0 -2 8 -10 18 -17 15 -13 16 -12 3 4 -13 16 -21 21 -21 13z"/>
 <path d="M2860 4170 c0 -7 3 -10 7 -7 3 4 3 10 0 14 -4 3 -7 0 -7 -7z"/>
 <path d="M2900 4170 c0 -7 3 -10 7 -7 3 4 3 10 0 14 -4 3 -7 0 -7 -7z"/>
 <path d="M3320 4175 c0 -3 2 -5 5 -5 3 0 5 2 5 5 0 3 -2 5 -5 5 -3 0 -5 -2 -5 -5z"/>
 <path d="M12939 4171 c-89 -28 -159 -74 -231 -149 -119 -125 -168 -249 -168 -429 0 -112 20 -204 64 -292 39 -75 113 -164 131 -157 7 2 23 -3 36 -12 13 -8 3 4 -22 29 -64 60 -121 153 -150 241 -20 61 -24 93 -24 193 0 139 24 232 83 319 99 146 219 220 379 233 177 14 364 -101 453 -277 72 -143 86 -318 37 -465 -33 -98 -91 -189 -162 -253 -41 -36 -52 -51 -45 -62 13 -21 141 107 185 185 58 105 80 194 79 325 -1 98 -5 127 -28 195 -53 155 -159 278 -296 344 -71 34 -81 36 -185 38 -60 1 -122 -2 -136 -6z"/>
 <path d="M3440 4155 c0 -3 2 -5 5 -5 3 0 5 2 5 5 0 3 -2 5 -5 5 -3 0 -5 -2 -5 -5z"/>
 <path d="M2870 4130 c0 -7 3 -10 7 -7 3 4 3 10 0 14 -4 3 -7 0 -7 -7z"/>
 <path d="M2910 4130 c0 -7 3 -10 7 -7 3 4 3 10 0 14 -4 3 -7 0 -7 -7z"/>
 <path d="M3430 4120 c0 -7 3 -10 7 -7 3 4 3 10 0 14 -4 3 -7 0 -7 -7z"/>
 <path d="M2880 4090 c0 -7 3 -10 7 -7 3 4 3 10 0 14 -4 3 -7 0 -7 -7z"/>
 <path d="M2921 4084 c0 -11 3 -14 6 -6 3 7 2 16 -1 19 -3 4 -6 -2 -5 -13z"/>
 <path d="M3380 4090 c0 -7 3 -10 7 -7 3 4 3 10 0 14 -4 3 -7 0 -7 -7z"/>
 <path d="M3420 4090 c0 -7 3 -10 7 -7 3 4 3 10 0 14 -4 3 -7 0 -7 -7z"/>
 <path d="M15290 4077 c-88 -34 -137 -65 -196 -125 -219 -221 -233 -588 -31 -845 16 -21 37 -37 46 -35 9 1 23 -2 31 -7 8 -5 -10 18 -40 52 -107 119 -145 222 -145 398 0 189 41 291 167 416 102 103 152 124 298 123 94 0 111 -3 161 -27 120 -59 218 -174 265 -312 25 -70 28 -95 28 -200 0 -105 -3 -130 -27 -200 -32 -91 -67 -146 -143 -225 -37 -38 -51 -59 -45 -68 6 -10 26 4 75 54 232 234 233 643 1 877 -43 44 -87 76 -132 98 -61 29 -78 33 -173 36 -71 2 -116 -1 -140 -10z"/>
 <path d="M3370 4060 c0 -7 3 -10 7 -7 3 4 3 10 0 14 -4 3 -7 0 -7 -7z"/>
 <path d="M3410 4060 c0 -7 3 -10 7 -7 3 4 3 10 0 14 -4 3 -7 0 -7 -7z"/>
 <path d="M2890 4045 c0 -3 2 -5 5 -5 3 0 5 2 5 5 0 3 -2 5 -5 5 -3 0 -5 -2 -5 -5z"/>
 <path d="M3400 4035 c0 -3 2 -5 5 -5 3 0 5 2 5 5 0 3 -2 5 -5 5 -3 0 -5 -2 -5 -5z"/>
 <path d="M2900 4010 c0 -7 3 -10 7 -7 3 4 3 10 0 14 -4 3 -7 0 -7 -7z"/>
 <path d="M6858 4001 c-85 -27 -137 -62 -209 -138 -106 -113 -159 -248 -159 -412 0 -99 19 -181 65 -276 41 -83 109 -167 131 -158 8 3 22 -1 32 -8 9 -7 -4 7 -29 31 -62 60 -113 141 -140 220 -30 90 -37 242 -15 330 50 198 193 350 364 387 265 57 510 -131 563 -432 31 -182 -38 -387 -172 -509 -42 -37 -55 -56 -49 -66 6 -10 25 3 78 54 110 106 167 231 178 391 18 260 -135 508 -363 584 -79 27 -195 27 -275 2z"/>
 <path d="M2940 4005 c0 -3 2 -5 5 -5 3 0 5 2 5 5 0 3 -2 5 -5 5 -3 0 -5 -2 -5 -5z"/>
 <path d="M3340 3985 c0 -3 2 -5 5 -5 3 0 5 2 5 5 0 3 -2 5 -5 5 -3 0 -5 -2 -5 -5z"/>
 <path d="M2910 3970 c0 -7 3 -10 7 -7 3 4 3 10 0 14 -4 3 -7 0 -7 -7z"/>
 <path d="M670 3965 c0 -3 2 -5 5 -5 3 0 5 2 5 5 0 3 -2 5 -5 5 -3 0 -5 -2 -5 -5z"/>
 <path d="M760 3965 c0 -3 2 -5 5 -5 3 0 5 2 5 5 0 3 -2 5 -5 5 -3 0 -5 -2 -5 -5z"/>
 <path d="M840 3965 c0 -3 2 -5 5 -5 3 0 5 2 5 5 0 3 -2 5 -5 5 -3 0 -5 -2 -5 -5z"/>
 <path d="M880 3965 c0 -3 2 -5 5 -5 3 0 5 2 5 5 0 3 -2 5 -5 5 -3 0 -5 -2 -5 -5z"/>
 <path d="M2950 3965 c0 -3 2 -5 5 -5 3 0 5 2 5 5 0 3 -2 5 -5 5 -3 0 -5 -2 -5 -5z"/>
 <path d="M3330 3965 c0 -3 2 -5 5 -5 3 0 5 2 5 5 0 3 -2 5 -5 5 -3 0 -5 -2 -5 -5z"/>
 <path d="M3370 3960 c0 -7 3 -10 7 -7 3 4 3 10 0 14 -4 3 -7 0 -7 -7z"/>
 <path d="M11265 3945 c11 -9 29 -21 40 -26 l20 -10 -20 16 c-11 9 -29 21 -40 26 l-20 10 20 -16z"/>
 <path d="M3320 3940 c0 -7 3 -10 7 -7 3 4 3 10 0 14 -4 3 -7 0 -7 -7z"/>
 <path d="M640 3935 c0 -3 2 -5 5 -5 3 0 5 2 5 5 0 3 -2 5 -5 5 -3 0 -5 -2 -5 -5z"/>
 <path d="M972 3924 c10 -10 20 -16 22 -13 3 3 -5 11 -17 18 -21 13 -21 12 -5 -5z"/>
 <path d="M2920 3930 c0 -7 3 -10 7 -7 3 4 3 10 0 14 -4 3 -7 0 -7 -7z"/>
 <path d="M2961 3924 c0 -11 3 -14 6 -6 3 7 2 16 -1 19 -3 4 -6 -2 -5 -13z"/>
 <path d="M860 3921 c0 -10 19 -25 25 -20 1 2 -3 10 -11 17 -8 7 -14 8 -14 3z"/>
 <path d="M1028 3923 c7 -3 16 -2 19 1 4 3 -2 6 -13 5 -11 0 -14 -3 -6 -6z"/>
 <path d="M630 3915 c0 -3 2 -5 5 -5 3 0 5 2 5 5 0 3 -2 5 -5 5 -3 0 -5 -2 -5 -5z"/>
 <path d="M695 3909 c-4 -6 -5 -12 -2 -15 2 -3 7 2 10 11 7 17 1 20 -8 4z"/>
 <path d="M3310 3915 c0 -3 2 -5 5 -5 3 0 5 2 5 5 0 3 -2 5 -5 5 -3 0 -5 -2 -5 -5z"/>
 <path d="M3350 3915 c0 -3 2 -5 5 -5 3 0 5 2 5 5 0 3 -2 5 -5 5 -3 0 -5 -2 -5 -5z"/>
 <path d="M755 3900 c-3 -5 -1 -10 4 -10 6 0 11 5 11 10 0 6 -2 10 -4 10 -3 0 -8 -4 -11 -10z"/>
 <path d="M2931 3884 c0 -11 3 -14 6 -6 3 7 2 16 -1 19 -3 4 -6 -2 -5 -13z"/>
 <path d="M3300 3895 c0 -3 2 -5 5 -5 3 0 5 2 5 5 0 3 -2 5 -5 5 -3 0 -5 -2 -5 -5z"/>
 <path d="M2970 3880 c0 -7 3 -10 7 -7 3 4 3 10 0 14 -4 3 -7 0 -7 -7z"/>
 <path d="M897 3874 c-4 -4 -7 -14 -7 -23 0 -11 3 -12 11 -4 6 6 10 16 7 23 -2 6 -7 8 -11 4z"/>
 <path d="M2660 3876 c0 -3 9 -10 20 -16 11 -6 20 -8 20 -6 0 3 -9 10 -20 16 -11 6 -20 8 -20 6z"/>
 <path d="M3290 3875 c0 -3 2 -5 5 -5 3 0 5 2 5 5 0 3 -2 5 -5 5 -3 0 -5 -2 -5 -5z"/>
 <path d="M3330 3875 c0 -3 2 -5 5 -5 3 0 5 2 5 5 0 3 -2 5 -5 5 -3 0 -5 -2 -5 -5z"/>
 <path d="M820 3859 c0 -5 5 -7 10 -4 6 3 10 8 10 11 0 2 -4 4 -10 4 -5 0 -10 -5 -10 -11z"/>
 <path d="M922 3832 l-23 -37 26 28 c14 15 25 32 25 38 0 14 -3 11 -28 -29z"/>
 <path d="M1012 3850 c0 -14 2 -19 5 -12 2 6 2 18 0 25 -3 6 -5 1 -5 -13z"/>
 <path d="M3280 3855 c0 -3 2 -5 5 -5 3 0 5 2 5 5 0 3 -2 5 -5 5 -3 0 -5 -2 -5 -5z"/>
 <path d="M3316 3845 c-9 -26 -7 -32 5 -12 6 10 9 21 6 23 -2 3 -7 -2 -11 -11z"/>
 <path d="M2940 3845 c0 -3 2 -5 5 -5 3 0 5 2 5 5 0 3 -2 5 -5 5 -3 0 -5 -2 -5 -5z"/>
 <path d="M2980 3840 c0 -7 3 -10 7 -7 3 4 3 10 0 14 -4 3 -7 0 -7 -7z"/>
 <path d="M640 3830 c0 -7 3 -10 7 -7 3 4 3 10 0 14 -4 3 -7 0 -7 -7z"/>
 <path d="M970 3835 c0 -3 2 -5 5 -5 3 0 5 2 5 5 0 3 -2 5 -5 5 -3 0 -5 -2 -5 -5z"/>
 <path d="M2743 3833 c4 -3 10 -3 14 0 3 4 0 7 -7 7 -7 0 -10 -3 -7 -7z"/>
 <path d="M3270 3835 c0 -3 2 -5 5 -5 3 0 5 2 5 5 0 3 -2 5 -5 5 -3 0 -5 -2 -5 -5z"/>
 <path d="M683 3823 c4 -3 10 -3 14 0 3 4 0 7 -7 7 -7 0 -10 -3 -7 -7z"/>
 <path d="M1030 3820 c0 -7 3 -10 7 -7 3 4 3 10 0 14 -4 3 -7 0 -7 -7z"/>
 <path d="M2770 3825 c0 -3 2 -5 5 -5 3 0 5 2 5 5 0 3 -2 5 -5 5 -3 0 -5 -2 -5 -5z"/>
 <path d="M11460 3825 c0 -3 2 -5 5 -5 3 0 5 2 5 5 0 3 -2 5 -5 5 -3 0 -5 -2 -5 -5z"/>
 <path d="M810 3815 c0 -3 2 -5 5 -5 3 0 5 2 5 5 0 3 -2 5 -5 5 -3 0 -5 -2 -5 -5z"/>
 <path d="M830 3815 c0 -3 2 -5 5 -5 3 0 5 2 5 5 0 3 -2 5 -5 5 -3 0 -5 -2 -5 -5z"/>
 <path d="M1000 3815 c0 -3 2 -5 5 -5 3 0 5 2 5 5 0 3 -2 5 -5 5 -3 0 -5 -2 -5 -5z"/>
 <path d="M2800 3815 c0 -3 2 -5 5 -5 3 0 5 2 5 5 0 3 -2 5 -5 5 -3 0 -5 -2 -5 -5z"/>
 <path d="M11710 3815 c0 -3 2 -5 5 -5 3 0 5 2 5 5 0 3 -2 5 -5 5 -3 0 -5 -2 -5 -5z"/>
 <path d="M1060 3800 c0 -7 3 -10 7 -7 3 4 3 10 0 14 -4 3 -7 0 -7 -7z"/>
 <path d="M3480 3795 c0 -3 2 -5 5 -5 3 0 5 2 5 5 0 3 -2 5 -5 5 -3 0 -5 -2 -5 -5z"/>
 <path d="M3240 3775 c0 -3 2 -5 5 -5 3 0 5 2 5 5 0 3 -2 5 -5 5 -3 0 -5 -2 -5 -5z"/>
 <path d="M11650 3773 c0 -22 22 -26 38 -7 16 17 16 17 -1 4 -16 -12 -20 -12 -28 1 -5 9 -9 10 -9 2z"/>
 <path d="M1020 3760 c0 -7 3 -10 7 -7 3 4 3 10 0 14 -4 3 -7 0 -7 -7z"/>
 <path d="M3000 3765 c0 -3 2 -5 5 -5 3 0 5 2 5 5 0 3 -2 5 -5 5 -3 0 -5 -2 -5 -5z"/>
 <path d="M3230 3755 c0 -3 2 -5 5 -5 3 0 5 2 5 5 0 3 -2 5 -5 5 -3 0 -5 -2 -5 -5z"/>
 <path d="M11487 3749 c7 -7 15 -10 18 -7 3 3 -2 9 -12 12 -14 6 -15 5 -6 -5z"/>
 <path d="M2950 3743 c8 -3 19 -11 23 -17 6 -7 7 -6 4 4 -2 8 -12 16 -23 17 -13 2 -15 1 -4 -4z"/>
 <path d="M3264 3738 c-4 -7 -3 -8 4 -4 7 4 12 9 12 12 0 8 -9 4 -16 -8z"/>
 <path d="M690 3735 c0 -3 2 -5 5 -5 3 0 5 2 5 5 0 3 -2 5 -5 5 -3 0 -5 -2 -5 -5z"/>
 <path d="M3010 3730 c0 -7 3 -10 7 -7 3 4 3 10 0 14 -4 3 -7 0 -7 -7z"/>
 <path d="M3220 3735 c0 -3 2 -5 5 -5 3 0 5 2 5 5 0 3 -2 5 -5 5 -3 0 -5 -2 -5 -5z"/>
 <path d="M9750 3725 c0 -3 2 -5 5 -5 3 0 5 2 5 5 0 3 -2 5 -5 5 -3 0 -5 -2 -5 -5z"/>
 <path d="M9890 3726 c0 -2 7 -7 16 -10 8 -3 12 -2 9 4 -6 10 -25 14 -25 6z"/>
 <path d="M1010 3710 c0 -7 3 -10 7 -7 3 4 3 10 0 14 -4 3 -7 0 -7 -7z"/>
 <path d="M3210 3715 c0 -3 2 -5 5 -5 3 0 5 2 5 5 0 3 -2 5 -5 5 -3 0 -5 -2 -5 -5z"/>
 <path d="M9958 3703 c7 -3 16 -2 19 1 4 3 -2 6 -13 5 -11 0 -14 -3 -6 -6z"/>
 <path d="M2980 3690 c0 -7 3 -10 7 -7 3 4 3 10 0 14 -4 3 -7 0 -7 -7z"/>
 <path d="M3020 3690 c0 -7 3 -10 7 -7 3 4 3 10 0 14 -4 3 -7 0 -7 -7z"/>
 <path d="M3208 3688 c5 -5 16 -8 23 -6 8 3 3 7 -10 11 -17 4 -21 3 -13 -5z"/>
 <path d="M9870 3686 c0 -8 4 -17 8 -20 4 -2 8 4 8 15 0 10 -4 19 -8 19 -4 0 -8 -6 -8 -14z"/>
 <path d="M9600 3680 c0 -7 3 -10 7 -7 3 4 3 10 0 14 -4 3 -7 0 -7 -7z"/>
 <path d="M10043 3683 c4 -3 10 -3 14 0 3 4 0 7 -7 7 -7 0 -10 -3 -7 -7z"/>
 <path d="M10083 3683 c4 -3 10 -3 14 0 3 4 0 7 -7 7 -7 0 -10 -3 -7 -7z"/>
 <path d="M670 3670 c0 -7 3 -10 7 -7 3 4 3 10 0 14 -4 3 -7 0 -7 -7z"/>
 <path d="M9675 3669 c-4 -6 -5 -12 -2 -15 2 -3 7 2 10 11 7 17 1 20 -8 4z"/>
 <path d="M1030 3660 c0 -7 3 -10 7 -7 3 4 3 10 0 14 -4 3 -7 0 -7 -7z"/>
 <path d="M9743 3663 c4 -3 10 -3 14 0 3 4 0 7 -7 7 -7 0 -10 -3 -7 -7z"/>
 <path d="M9950 3665 c0 -3 2 -5 5 -5 3 0 5 2 5 5 0 3 -2 5 -5 5 -3 0 -5 -2 -5 -5z"/>
 <path d="M10045 3649 c-4 -6 -4 -13 -1 -16 3 -4 6 -1 6 5 0 6 8 13 18 15 15 4 15 5 0 6 -9 0 -20 -4 -23 -10z"/>
 <path d="M990 3640 c0 -7 3 -10 7 -7 3 4 3 10 0 14 -4 3 -7 0 -7 -7z"/>
 <path d="M9824 3640 c2 -16 20 -14 24 2 3 10 2 10 -6 -1 -7 -9 -11 -10 -15 -2 -4 7 -5 8 -3 1z"/>
 <path d="M9744 3628 c-4 -7 -3 -8 4 -4 7 4 12 9 12 12 0 8 -9 4 -16 -8z"/>
 <path d="M9900 3621 c-7 -15 -7 -21 0 -21 12 0 25 28 17 36 -3 3 -10 -4 -17 -15z"/>
 <path d="M1020 3620 c0 -7 3 -10 7 -7 3 4 3 10 0 14 -4 3 -7 0 -7 -7z"/>
 <path d="M680 3610 c0 -7 3 -10 7 -7 3 4 3 10 0 14 -4 3 -7 0 -7 -7z"/>
 <path d="M9996 3603 c-6 -14 -5 -15 5 -6 7 7 10 15 7 18 -3 3 -9 -2 -12 -12z"/>
 <path d="M9660 3595 c0 -3 2 -5 5 -5 3 0 5 2 5 5 0 3 -2 5 -5 5 -3 0 -5 -2 -5 -5z"/>
 <path d="M9760 3595 c0 -3 2 -5 5 -5 3 0 5 2 5 5 0 3 -2 5 -5 5 -3 0 -5 -2 -5 -5z"/>
 <path d="M9934 3588 c-4 -7 -3 -8 4 -4 7 4 12 9 12 12 0 8 -9 4 -16 -8z"/>
 <path d="M10070 3590 c0 -7 3 -10 7 -7 3 4 3 10 0 14 -4 3 -7 0 -7 -7z"/>
 <path d="M10110 3590 c0 -7 3 -10 7 -7 3 4 3 10 0 14 -4 3 -7 0 -7 -7z"/>
 <path d="M1010 3585 c0 -3 2 -5 5 -5 3 0 5 2 5 5 0 3 -2 5 -5 5 -3 0 -5 -2 -5 -5z"/>
 <path d="M3020 3585 c0 -3 2 -5 5 -5 3 0 5 2 5 5 0 3 -2 5 -5 5 -3 0 -5 -2 -5 -5z"/>
 <path d="M9620 3580 c0 -7 3 -10 7 -7 3 4 3 10 0 14 -4 3 -7 0 -7 -7z"/>
 <path d="M9840 3585 c0 -3 2 -5 5 -5 3 0 5 2 5 5 0 3 -2 5 -5 5 -3 0 -5 -2 -5 -5z"/>
 <path d="M9865 3580 c3 -5 8 -10 11 -10 3 0 2 5 -1 10 -3 6 -8 10 -11 10 -3 0 -2 -4 1 -10z"/>
 <path d="M720 3570 c0 -7 3 -10 7 -7 3 4 3 10 0 14 -4 3 -7 0 -7 -7z"/>
 <path d="M9660 3560 c0 -7 3 -10 7 -7 3 4 3 10 0 14 -4 3 -7 0 -7 -7z"/>
 <path d="M9965 3560 c3 -5 8 -10 11 -10 3 0 2 5 -1 10 -3 6 -8 10 -11 10 -3 0 -2 -4 1 -10z"/>
 <path d="M1000 3550 c0 -7 3 -10 7 -7 3 4 3 10 0 14 -4 3 -7 0 -7 -7z"/>
 <path d="M4464 3544 c-119 -32 -244 -127 -310 -236 -61 -100 -84 -183 -84 -303 0 -114 22 -201 74 -290 40 -67 109 -138 137 -140 21 -1 18 5 -32 55 -105 107 -155 232 -152 385 3 238 174 459 391 504 181 38 345 -10 474 -139 207 -207 209 -540 4 -745 -33 -34 -72 -68 -85 -76 -20 -13 -21 -16 -8 -27 12 -10 27 -1 90 58 206 192 243 486 92 725 -42 66 -139 156 -201 188 -109 55 -275 73 -390 41z"/>
 <path d="M10000 3555 c0 -3 2 -5 5 -5 3 0 5 2 5 5 0 3 -2 5 -5 5 -3 0 -5 -2 -5 -5z"/>
 <path d="M10101 3544 c0 -11 3 -14 6 -6 3 7 2 16 -1 19 -3 4 -6 -2 -5 -13z"/>
 <path d="M9630 3530 c0 -7 3 -10 7 -7 3 4 3 10 0 14 -4 3 -7 0 -7 -7z"/>
 <path d="M990 3520 c0 -7 3 -10 7 -7 3 4 3 10 0 14 -4 3 -7 0 -7 -7z"/>
 <path d="M730 3510 c0 -7 3 -10 7 -7 3 4 3 10 0 14 -4 3 -7 0 -7 -7z"/>
 <path d="M9636 3497 c3 -10 9 -15 12 -12 3 3 0 11 -7 18 -10 9 -11 8 -5 -6z"/>
 <path d="M980 3490 c0 -7 3 -10 7 -7 3 4 3 10 0 14 -4 3 -7 0 -7 -7z"/>
 <path d="M530 3486 c0 -2 8 -10 18 -17 15 -13 16 -12 3 4 -13 16 -21 21 -21 13z"/>
 <path d="M15308 3483 c17 -2 47 -2 65 0 17 2 3 4 -33 4 -36 0 -50 -2 -32 -4z"/>
 <path d="M15450 3486 c0 -2 8 -10 18 -17 15 -13 16 -12 3 4 -13 16 -21 21 -21 13z"/>
 <path d="M970 3460 c0 -7 3 -10 7 -7 3 4 3 10 0 14 -4 3 -7 0 -7 -7z"/>
 <path d="M15370 3450 c0 -5 5 -10 10 -10 6 0 10 5 10 10 0 6 -4 10 -10 10 -5 0 -10 -4 -10 -10z"/>
 <path d="M15430 3449 c0 -5 5 -7 10 -4 6 3 10 8 10 11 0 2 -4 4 -10 4 -5 0 -10 -5 -10 -11z"/>
 <path d="M15520 3456 c0 -2 8 -10 18 -17 15 -13 16 -12 3 4 -13 16 -21 21 -21 13z"/>
 <path d="M583 3443 c4 -3 10 -3 14 0 3 4 0 7 -7 7 -7 0 -10 -3 -7 -7z"/>
 <path d="M710 3440 c0 -7 3 -10 7 -7 3 4 3 10 0 14 -4 3 -7 0 -7 -7z"/>
 <path d="M9650 3440 c0 -7 3 -10 7 -7 3 4 3 10 0 14 -4 3 -7 0 -7 -7z"/>
 <path d="M15242 3425 c0 -16 2 -22 5 -12 2 9 2 23 0 30 -3 6 -5 -1 -5 -18z"/>
 <path d="M15296 3441 c-4 -7 -5 -15 -2 -18 9 -9 19 4 14 18 -4 11 -6 11 -12 0z"/>
 <path d="M15568 3443 c6 -2 18 -2 25 0 6 3 1 5 -13 5 -14 0 -19 -2 -12 -5z"/>
 <path d="M15348 3434 c-5 -4 -8 -19 -8 -33 1 -23 2 -24 11 -8 11 19 9 53 -3 41z"/>
 <path d="M15496 3431 c-4 -5 -2 -12 3 -15 5 -4 12 -2 15 3 4 5 2 12 -3 15 -5 4 -12 2 -15 -3z"/>
 <path d="M6850 3425 c0 -3 2 -5 5 -5 3 0 5 2 5 5 0 3 -2 5 -5 5 -3 0 -5 -2 -5 -5z"/>
 <path d="M6880 3425 c0 -3 2 -5 5 -5 3 0 5 2 5 5 0 3 -2 5 -5 5 -3 0 -5 -2 -5 -5z"/>
 <path d="M6918 3423 c7 -3 16 -2 19 1 4 3 -2 6 -13 5 -11 0 -14 -3 -6 -6z"/>
 <path d="M6988 3423 c12 -2 30 -2 40 0 9 3 -1 5 -23 4 -22 0 -30 -2 -17 -4z"/>
 <path d="M15400 3405 c0 -14 5 -25 10 -25 6 0 10 11 10 25 0 14 -4 25 -10 25 -5 0 -10 -11 -10 -25z"/>
 <path d="M15443 3423 c4 -3 10 -3 14 0 3 4 0 7 -7 7 -7 0 -10 -3 -7 -7z"/>
 <path d="M15613 3390 c0 -25 2 -35 4 -22 2 12 2 32 0 45 -2 12 -4 2 -4 -23z"/>
 <path d="M15560 3390 c0 -16 2 -30 4 -30 2 0 6 14 8 30 3 17 1 30 -4 30 -4 0 -8 -13 -8 -30z"/>
 <path d="M750 3400 c0 -7 3 -10 7 -7 3 4 3 10 0 14 -4 3 -7 0 -7 -7z"/>
 <path d="M950 3400 c0 -7 3 -10 7 -7 3 4 3 10 0 14 -4 3 -7 0 -7 -7z"/>
 <path d="M7063 3403 c4 -3 10 -3 14 0 3 4 0 7 -7 7 -7 0 -10 -3 -7 -7z"/>
 <path d="M7090 3405 c0 -3 2 -5 5 -5 3 0 5 2 5 5 0 3 -2 5 -5 5 -3 0 -5 -2 -5 -5z"/>
 <path d="M15290 3400 c0 -5 5 -10 10 -10 6 0 10 5 10 10 0 6 -4 10 -10 10 -5 0 -10 -4 -10 -10z"/>
 <path d="M15460 3391 c-7 -15 -7 -21 0 -21 12 0 25 28 17 36 -3 3 -10 -4 -17 -15z"/>
 <path d="M710 3395 c0 -3 2 -5 5 -5 3 0 5 2 5 5 0 3 -2 5 -5 5 -3 0 -5 -2 -5 -5z"/>
 <path d="M6950 3395 c0 -3 2 -5 5 -5 3 0 5 2 5 5 0 3 -2 5 -5 5 -3 0 -5 -2 -5 -5z"/>
 <path d="M15493 3377 c-16 -34 -38 -43 -61 -26 -15 13 -16 12 -3 -3 7 -10 19 -18 25 -18 20 1 58 39 54 57 -2 13 -6 10 -15 -10z"/>
 <path d="M910 3385 c0 -3 2 -5 5 -5 3 0 5 2 5 5 0 3 -2 5 -5 5 -3 0 -5 -2 -5 -5z"/>
 <path d="M6812 3365 c0 -16 2 -22 5 -12 2 9 2 23 0 30 -3 6 -5 -1 -5 -18z"/>
 <path d="M7020 3380 c0 -5 5 -10 10 -10 6 0 10 5 10 10 0 6 -4 10 -10 10 -5 0 -10 -4 -10 -10z"/>
 <path d="M7140 3385 c0 -3 2 -5 5 -5 3 0 5 2 5 5 0 3 -2 5 -5 5 -3 0 -5 -2 -5 -5z"/>
 <path d="M7180 3386 c0 -2 8 -10 18 -17 15 -13 16 -12 3 4 -13 16 -21 21 -21 13z"/>
 <path d="M9700 3380 c0 -7 3 -10 7 -7 3 4 3 10 0 14 -4 3 -7 0 -7 -7z"/>
 <path d="M10006 3375 c-9 -26 -7 -32 5 -12 6 10 9 21 6 23 -2 3 -7 -2 -11 -11z"/>
 <path d="M15366 3373 c-4 -9 -4 -14 0 -10 4 4 14 1 23 -6 14 -11 15 -10 1 8 -8 11 -15 21 -16 23 -1 2 -5 -5 -8 -15z"/>
 <path d="M15526 3375 c-3 -8 -1 -15 4 -15 6 0 10 7 10 15 0 8 -2 15 -4 15 -2 0 -6 -7 -10 -15z"/>
 <path d="M720 3360 c0 -7 3 -10 7 -7 3 4 3 10 0 14 -4 3 -7 0 -7 -7z"/>
 <path d="M6871 3354 c0 -11 3 -14 6 -6 3 7 2 16 -1 19 -3 4 -6 -2 -5 -13z"/>
 <path d="M15250 3360 c0 -7 3 -10 7 -7 3 4 3 10 0 14 -4 3 -7 0 -7 -7z"/>
 <path d="M15280 3360 c0 -7 3 -10 7 -7 3 4 3 10 0 14 -4 3 -7 0 -7 -7z"/>
 <path d="M15313 3363 c4 -3 10 -3 14 0 3 4 0 7 -7 7 -7 0 -10 -3 -7 -7z"/>
 <path d="M15582 3345 c0 -16 2 -22 5 -12 2 9 2 23 0 30 -3 6 -5 -1 -5 -18z"/>
 <path d="M6920 3350 c0 -7 3 -10 7 -7 3 4 3 10 0 14 -4 3 -7 0 -7 -7z"/>
 <path d="M6980 3344 c0 -8 5 -12 10 -9 6 4 8 11 5 16 -9 14 -15 11 -15 -7z"/>
 <path d="M7080 3350 c0 -5 5 -10 10 -10 6 0 10 5 10 10 0 6 -4 10 -10 10 -5 0 -10 -4 -10 -10z"/>
 <path d="M7145 3350 c-3 -6 1 -7 9 -4 18 7 21 14 7 14 -6 0 -13 -4 -16 -10z"/>
 <path d="M930 3345 c0 -3 2 -5 5 -5 3 0 5 2 5 5 0 3 -2 5 -5 5 -3 0 -5 -2 -5 -5z"/>
 <path d="M9670 3340 c0 -7 3 -10 7 -7 3 4 3 10 0 14 -4 3 -7 0 -7 -7z"/>
 <path d="M9710 3340 c0 -7 3 -10 7 -7 3 4 3 10 0 14 -4 3 -7 0 -7 -7z"/>
 <path d="M15500 3341 c0 -6 4 -13 10 -16 6 -3 7 1 4 9 -7 18 -14 21 -14 7z"/>
 <path d="M15539 3333 c-13 -16 -12 -17 4 -4 16 13 21 21 13 21 -2 0 -10 -8 -17 -17z"/>
 <path d="M732 3320 c0 -14 2 -19 5 -12 2 6 2 18 0 25 -3 6 -5 1 -5 -13z"/>
 <path d="M15280 3330 c0 -7 3 -10 7 -7 3 4 3 10 0 14 -4 3 -7 0 -7 -7z"/>
 <path d="M7040 3325 c0 -3 2 -5 5 -5 3 0 5 2 5 5 0 3 -2 5 -5 5 -3 0 -5 -2 -5 -5z"/>
 <path d="M8647 3320 c-65 -17 -130 -57 -183 -112 -111 -116 -139 -186 -139 -348 0 -152 29 -232 118 -327 49 -52 50 -27 2 38 -78 106 -113 239 -95 354 46 287 299 448 532 338 146 -69 238 -224 238 -397 -1 -138 -37 -230 -130 -329 -78 -84 -61 -103 19 -21 184 190 187 494 5 684 -76 80 -158 120 -256 125 -40 3 -90 0 -111 -5z"/>
 <path d="M15601 3314 c0 -11 3 -14 6 -6 3 7 2 16 -1 19 -3 4 -6 -2 -5 -13z"/>
 <path d="M6950 3315 c0 -3 2 -5 5 -5 3 0 5 2 5 5 0 3 -2 5 -5 5 -3 0 -5 -2 -5 -5z"/>
 <path d="M15260 3310 c0 -7 3 -10 7 -7 3 4 3 10 0 14 -4 3 -7 0 -7 -7z"/>
 <path d="M764 3298 c-4 -7 -3 -8 4 -4 7 4 12 9 12 12 0 8 -9 4 -16 -8z"/>
 <path d="M6820 3300 c0 -7 3 -10 7 -7 3 4 3 10 0 14 -4 3 -7 0 -7 -7z"/>
 <path d="M7161 3294 c0 -11 3 -14 6 -6 3 7 2 16 -1 19 -3 4 -6 -2 -5 -13z"/>
 <path d="M9980 3305 c0 -3 2 -5 5 -5 3 0 5 2 5 5 0 3 -2 5 -5 5 -3 0 -5 -2 -5 -5z"/>
 <path d="M15566 3274 c-4 -20 -5 -38 -3 -40 3 -3 8 11 11 32 4 20 5 38 3 40 -3 3 -8 -11 -11 -32z"/>
 <path d="M6913 3293 c4 -3 10 -3 14 0 3 4 0 7 -7 7 -7 0 -10 -3 -7 -7z"/>
 <path d="M7009 3287 c17 -22 35 -21 52 1 13 16 12 16 -4 3 -16 -13 -22 -13 -40 -1 -20 12 -21 12 -8 -3z"/>
 <path d="M9680 3290 c0 -7 3 -10 7 -7 3 4 3 10 0 14 -4 3 -7 0 -7 -7z"/>
 <path d="M9720 3290 c0 -7 3 -10 7 -7 3 4 3 10 0 14 -4 3 -7 0 -7 -7z"/>
 <path d="M6860 3280 c0 -7 3 -10 7 -7 3 4 3 10 0 14 -4 3 -7 0 -7 -7z"/>
 <path d="M7190 3280 c0 -7 3 -10 7 -7 3 4 3 10 0 14 -4 3 -7 0 -7 -7z"/>
 <path d="M9460 3286 c0 -3 9 -10 20 -16 11 -6 20 -8 20 -6 0 3 -9 10 -20 16 -11 6 -20 8 -20 6z"/>
 <path d="M15290 3280 c0 -7 3 -10 7 -7 3 4 3 10 0 14 -4 3 -7 0 -7 -7z"/>
 <path d="M15272 3245 c0 -16 2 -22 5 -12 2 9 2 23 0 30 -3 6 -5 -1 -5 -18z"/>
 <path d="M15590 3260 c0 -7 3 -10 7 -7 3 4 3 10 0 14 -4 3 -7 0 -7 -7z"/>
 <path d="M6830 3250 c0 -7 3 -10 7 -7 3 4 3 10 0 14 -4 3 -7 0 -7 -7z"/>
 <path d="M9510 3255 c0 -3 2 -5 5 -5 3 0 5 2 5 5 0 3 -2 5 -5 5 -3 0 -5 -2 -5 -5z"/>
 <path d="M7150 3240 c0 -7 3 -10 7 -7 3 4 3 10 0 14 -4 3 -7 0 -7 -7z"/>
 <path d="M9690 3240 c0 -7 3 -10 7 -7 3 4 3 10 0 14 -4 3 -7 0 -7 -7z"/>
 <path d="M9730 3240 c0 -7 3 -10 7 -7 3 4 3 10 0 14 -4 3 -7 0 -7 -7z"/>
 <path d="M7180 3230 c0 -7 3 -10 7 -7 3 4 3 10 0 14 -4 3 -7 0 -7 -7z"/>
 <path d="M15581 3224 c0 -11 3 -14 6 -6 3 7 2 16 -1 19 -3 4 -6 -2 -5 -13z"/>
 <path d="M6870 3220 c0 -7 3 -10 7 -7 3 4 3 10 0 14 -4 3 -7 0 -7 -7z"/>
 <path d="M15301 3214 c0 -11 3 -14 6 -6 3 7 2 16 -1 19 -3 4 -6 -2 -5 -13z"/>
 <path d="M9980 3210 c0 -7 3 -10 7 -7 3 4 3 10 0 14 -4 3 -7 0 -7 -7z"/>
 <path d="M15550 3210 c0 -7 3 -10 7 -7 3 4 3 10 0 14 -4 3 -7 0 -7 -7z"/>
 <path d="M6840 3205 c0 -3 2 -5 5 -5 3 0 5 2 5 5 0 3 -2 5 -5 5 -3 0 -5 -2 -5 -5z"/>
 <path d="M9702 3185 c0 -16 2 -22 5 -12 2 9 2 23 0 30 -3 6 -5 -1 -5 -18z"/>
 <path d="M15282 3185 c0 -16 2 -22 5 -12 2 9 2 23 0 30 -3 6 -5 -1 -5 -18z"/>
 <path d="M7140 3195 c0 -3 2 -5 5 -5 3 0 5 2 5 5 0 3 -2 5 -5 5 -3 0 -5 -2 -5 -5z"/>
 <path d="M15571 3184 c0 -11 3 -14 6 -6 3 7 2 16 -1 19 -3 4 -6 -2 -5 -13z"/>
 <path d="M7170 3180 c0 -7 3 -10 7 -7 3 4 3 10 0 14 -4 3 -7 0 -7 -7z"/>
 <path d="M15310 3156 c0 -14 4 -27 8 -30 5 -3 6 8 4 25 -5 35 -12 38 -12 5z"/>
 <path d="M15540 3170 c0 -7 3 -10 7 -7 3 4 3 10 0 14 -4 3 -7 0 -7 -7z"/>
 <path d="M6881 3154 c0 -11 3 -14 6 -6 3 7 2 16 -1 19 -3 4 -6 -2 -5 -13z"/>
 <path d="M7130 3160 c0 -7 3 -10 7 -7 3 4 3 10 0 14 -4 3 -7 0 -7 -7z"/>
 <path d="M15560 3150 c0 -7 3 -10 7 -7 3 4 3 10 0 14 -4 3 -7 0 -7 -7z"/>
 <path d="M7160 3140 c0 -7 3 -10 7 -7 3 4 3 10 0 14 -4 3 -7 0 -7 -7z"/>
 <path d="M9906 3133 c-4 -9 -3 -20 1 -24 4 -4 9 3 9 17 2 28 -1 31 -10 7z"/>
 <path d="M15526 3124 c-4 -14 -5 -28 -3 -31 3 -2 8 8 11 23 4 14 5 28 3 31 -3 2 -8 -8 -11 -23z"/>
 <path d="M9950 3135 c0 -3 2 -5 5 -5 3 0 5 2 5 5 0 3 -2 5 -5 5 -3 0 -5 -2 -5 -5z"/>
 <path d="M9721 3114 c0 -11 3 -14 6 -6 3 7 2 16 -1 19 -3 4 -6 -2 -5 -13z"/>
 <path d="M15290 3120 c0 -7 3 -10 7 -7 3 4 3 10 0 14 -4 3 -7 0 -7 -7z"/>
 <path d="M12805 3110 c3 -5 8 -10 11 -10 3 0 2 5 -1 10 -3 6 -8 10 -11 10 -3 0 -2 -4 1 -10z"/>
 <path d="M15550 3115 c0 -3 2 -5 5 -5 3 0 5 2 5 5 0 3 -2 5 -5 5 -3 0 -5 -2 -5 -5z"/>
 <path d="M9760 3105 c0 -3 2 -5 5 -5 3 0 5 2 5 5 0 3 -2 5 -5 5 -3 0 -5 -2 -5 -5z"/>
 <path d="M6861 3084 c0 -11 3 -14 6 -6 3 7 2 16 -1 19 -3 4 -6 -2 -5 -13z"/>
 <path d="M7110 3090 c0 -7 3 -10 7 -7 3 4 3 10 0 14 -4 3 -7 0 -7 -7z"/>
 <path d="M15321 3084 c0 -11 3 -14 6 -6 3 7 2 16 -1 19 -3 4 -6 -2 -5 -13z"/>
 <path d="M15540 3080 c0 -7 3 -10 7 -7 3 4 3 10 0 14 -4 3 -7 0 -7 -7z"/>
 <path d="M14182 3069 c-116 -23 -226 -114 -285 -236 -31 -66 -32 -72 -32 -198 0 -125 1 -133 31 -195 34 -72 88 -140 111 -140 9 0 -2 21 -32 58 -192 246 -71 632 216 683 60 11 77 10 132 -5 111 -31 203 -110 250 -216 78 -174 31 -398 -106 -515 -27 -24 -37 -39 -31 -45 7 -7 28 8 65 43 182 178 183 486 1 659 -69 66 -117 92 -197 107 -65 12 -63 12 -123 0z"/>
 <path d="M15301 3064 c0 -11 3 -14 6 -6 3 7 2 16 -1 19 -3 4 -6 -2 -5 -13z"/>
 <path d="M15510 3070 c0 -7 3 -10 7 -7 3 4 3 10 0 14 -4 3 -7 0 -7 -7z"/>
 <path d="M7100 3055 c0 -3 2 -5 5 -5 3 0 5 2 5 5 0 3 -2 5 -5 5 -3 0 -5 -2 -5 -5z"/>
 <path d="M15530 3050 c0 -7 3 -10 7 -7 3 4 3 10 0 14 -4 3 -7 0 -7 -7z"/>
 <path d="M6900 3040 c0 -7 3 -10 7 -7 3 4 3 10 0 14 -4 3 -7 0 -7 -7z"/>
 <path d="M12950 3045 c0 -3 2 -5 5 -5 3 0 5 2 5 5 0 3 -2 5 -5 5 -3 0 -5 -2 -5 -5z"/>
 <path d="M13160 3040 c0 -7 3 -10 7 -7 3 4 3 10 0 14 -4 3 -7 0 -7 -7z"/>
 <path d="M15331 3034 c0 -11 3 -14 6 -6 3 7 2 16 -1 19 -3 4 -6 -2 -5 -13z"/>
 <path d="M15500 3040 c0 -7 3 -10 7 -7 3 4 3 10 0 14 -4 3 -7 0 -7 -7z"/>
 <path d="M6870 3020 c0 -7 3 -10 7 -7 3 4 3 10 0 14 -4 3 -7 0 -7 -7z"/>
 <path d="M7090 3025 c0 -3 2 -5 5 -5 3 0 5 2 5 5 0 3 -2 5 -5 5 -3 0 -5 -2 -5 -5z"/>
 <path d="M15312 3005 c0 -16 2 -22 5 -12 2 9 2 23 0 30 -3 6 -5 -1 -5 -18z"/>
 <path d="M15520 3020 c0 -7 3 -10 7 -7 3 4 3 10 0 14 -4 3 -7 0 -7 -7z"/>
 <path d="M7120 3010 c0 -7 3 -10 7 -7 3 4 3 10 0 14 -4 3 -7 0 -7 -7z"/>
 <path d="M15490 3010 c0 -7 3 -10 7 -7 3 4 3 10 0 14 -4 3 -7 0 -7 -7z"/>
 <path d="M13150 3005 c0 -3 2 -5 5 -5 3 0 5 2 5 5 0 3 -2 5 -5 5 -3 0 -5 -2 -5 -5z"/>
 <path d="M6745 2990 c3 -5 8 -10 11 -10 3 0 2 5 -1 10 -3 6 -8 10 -11 10 -3 0 -2 -4 1 -10z"/>
 <path d="M15502 2963 c-6 -20 -7 -32 -2 -27 10 10 25 64 18 64 -3 0 -10 -16 -16 -37z"/>
 <path d="M6910 2985 c0 -3 2 -5 5 -5 3 0 5 2 5 5 0 3 -2 5 -5 5 -3 0 -5 -2 -5 -5z"/>
 <path d="M7110 2980 c0 -7 3 -10 7 -7 3 4 3 10 0 14 -4 3 -7 0 -7 -7z"/>
 <path d="M13140 2985 c0 -3 2 -5 5 -5 3 0 5 2 5 5 0 3 -2 5 -5 5 -3 0 -5 -2 -5 -5z"/>
 <path d="M15341 2974 c0 -11 3 -14 6 -6 3 7 2 16 -1 19 -3 4 -6 -2 -5 -13z"/>
 <path d="M15480 2980 c0 -7 3 -10 7 -7 3 4 3 10 0 14 -4 3 -7 0 -7 -7z"/>
 <path d="M12970 2973 c0 -19 21 -27 33 -13 9 10 9 11 -2 5 -8 -4 -17 -2 -22 6 -6 9 -9 10 -9 2z"/>
 <path d="M6880 2965 c0 -3 2 -5 5 -5 3 0 5 2 5 5 0 3 -2 5 -5 5 -3 0 -5 -2 -5 -5z"/>
 <path d="M7070 2965 c0 -3 2 -5 5 -5 3 0 5 2 5 5 0 3 -2 5 -5 5 -3 0 -5 -2 -5 -5z"/>
 <path d="M13118 2963 c7 -3 16 -2 19 1 4 3 -2 6 -13 5 -11 0 -14 -3 -6 -6z"/>
 <path d="M15322 2945 c0 -16 2 -22 5 -12 2 9 2 23 0 30 -3 6 -5 -1 -5 -18z"/>
 <path d="M7100 2955 c0 -3 2 -5 5 -5 3 0 5 2 5 5 0 3 -2 5 -5 5 -3 0 -5 -2 -5 -5z"/>
 <path d="M15470 2950 c0 -7 3 -10 7 -7 3 4 3 10 0 14 -4 3 -7 0 -7 -7z"/>
 <path d="M6920 2930 c0 -7 3 -10 7 -7 3 4 3 10 0 14 -4 3 -7 0 -7 -7z"/>
 <path d="M7060 2935 c0 -3 2 -5 5 -5 3 0 5 2 5 5 0 3 -2 5 -5 5 -3 0 -5 -2 -5 -5z"/>
 <path d="M15350 2921 c0 -11 -6 -22 -12 -24 -8 -3 -6 -6 5 -6 12 -1 17 7 17 24 0 14 -2 25 -5 25 -3 0 -5 -9 -5 -19z"/>
 <path d="M15457 2917 c-7 -20 17 -24 29 -5 4 6 3 8 -4 4 -5 -3 -12 -1 -14 6 -3 8 -7 6 -11 -5z"/>
 <path d="M7050 2905 c0 -3 2 -5 5 -5 3 0 5 2 5 5 0 3 -2 5 -5 5 -3 0 -5 -2 -5 -5z"/>
 <path d="M6890 2895 c0 -3 2 -5 5 -5 3 0 5 2 5 5 0 3 -2 5 -5 5 -3 0 -5 -2 -5 -5z"/>
 <path d="M5853 2880 c-82 -17 -187 -78 -256 -149 -180 -186 -220 -476 -97 -703 39 -72 107 -148 132 -148 16 0 10 11 -32 58 -187 207 -189 545 -5 749 105 117 216 169 360 167 137 -1 222 -38 327 -140 139 -135 195 -357 140 -554 -29 -105 -64 -164 -150 -249 -52 -51 -71 -76 -63 -84 7 -7 34 14 88 69 121 123 161 215 170 391 4 89 2 126 -12 180 -75 285 -337 465 -602 413z"/>
 <path d="M6930 2870 c0 -7 3 -10 7 -7 3 4 3 10 0 14 -4 3 -7 0 -7 -7z"/>
 <path d="M1880 2843 c-167 -69 -300 -294 -300 -508 0 -71 28 -193 61 -264 39 -85 98 -166 112 -152 7 7 -3 27 -30 63 -54 71 -70 105 -94 195 -35 140 -19 304 44 428 18 36 56 86 97 126 55 55 79 70 133 88 155 52 299 9 410 -121 59 -70 92 -138 111 -231 21 -101 20 -185 -4 -284 -23 -99 -65 -177 -131 -244 -73 -75 -62 -96 11 -24 132 130 190 325 156 522 -26 153 -107 291 -210 363 -111 76 -246 92 -366 43z"/>
 <path d="M6900 2860 c0 -7 3 -10 7 -7 3 4 3 10 0 14 -4 3 -7 0 -7 -7z"/>
 <path d="M7030 2855 c0 -3 2 -5 5 -5 3 0 5 2 5 5 0 3 -2 5 -5 5 -3 0 -5 -2 -5 -5z"/>
 <path d="M6910 2835 c0 -3 2 -5 5 -5 3 0 5 2 5 5 0 3 -2 5 -5 5 -3 0 -5 -2 -5 -5z"/>
 <path d="M14280 2605 c0 -3 2 -5 5 -5 3 0 5 2 5 5 0 3 -2 5 -5 5 -3 0 -5 -2 -5 -5z"/>
 <path d="M14220 2585 c0 -3 2 -5 5 -5 3 0 5 2 5 5 0 3 -2 5 -5 5 -3 0 -5 -2 -5 -5z"/>
 <path d="M14265 2580 c3 -5 8 -10 11 -10 2 0 4 5 4 10 0 6 -5 10 -11 10 -5 0 -7 -4 -4 -10z"/>
 <path d="M14150 2570 c0 -7 3 -10 7 -7 3 4 3 10 0 14 -4 3 -7 0 -7 -7z"/>
 <path d="M4325 2560 c3 -5 8 -10 11 -10 3 0 2 5 -1 10 -3 6 -8 10 -11 10 -3 0 -2 -4 1 -10z"/>
 <path d="M14310 2560 c0 -5 5 -10 10 -10 6 0 10 5 10 10 0 6 -4 10 -10 10 -5 0 -10 -4 -10 -10z"/>
 <path d="M14381 2544 c0 -11 3 -14 6 -6 3 7 2 16 -1 19 -3 4 -6 -2 -5 -13z"/>
 <path d="M14361 2534 c0 -11 3 -14 6 -6 3 7 2 16 -1 19 -3 4 -6 -2 -5 -13z"/>
 <path d="M10520 2517 c-128 -64 -212 -226 -194 -377 10 -89 97 -251 121 -226 4 3 -3 19 -16 34 -116 144 -109 363 18 488 62 63 102 79 196 79 69 0 86 -4 127 -27 187 -111 225 -380 77 -542 -27 -30 -49 -60 -49 -67 0 -25 98 83 126 140 27 51 29 65 29 166 0 92 -4 118 -22 158 -29 62 -113 150 -169 176 -63 30 -182 29 -244 -2z"/>
 <path d="M14305 2520 c-3 -5 -1 -10 4 -10 6 0 11 5 11 10 0 6 -2 10 -4 10 -3 0 -8 -4 -11 -10z"/>
 <path d="M4410 2515 c0 -3 2 -5 5 -5 3 0 5 2 5 5 0 3 -2 5 -5 5 -3 0 -5 -2 -5 -5z"/>
 <path d="M14183 2513 c4 -3 10 -3 14 0 3 4 0 7 -7 7 -7 0 -10 -3 -7 -7z"/>
 <path d="M8505 2500 c3 -5 8 -10 11 -10 3 0 2 5 -1 10 -3 6 -8 10 -11 10 -3 0 -2 -4 1 -10z"/>
 <path d="M14260 2505 c0 -3 2 -5 5 -5 3 0 5 2 5 5 0 3 -2 5 -5 5 -3 0 -5 -2 -5 -5z"/>
 <path d="M4710 2485 c0 -3 2 -5 5 -5 3 0 5 2 5 5 0 3 -2 5 -5 5 -3 0 -5 -2 -5 -5z"/>
 <path d="M14370 2480 c0 -7 3 -10 7 -7 3 4 3 10 0 14 -4 3 -7 0 -7 -7z"/>
 <path d="M14390 2470 c0 -7 3 -10 7 -7 3 4 3 10 0 14 -4 3 -7 0 -7 -7z"/>
 <path d="M14150 2450 c0 -7 3 -10 7 -7 3 4 3 10 0 14 -4 3 -7 0 -7 -7z"/>
 <path d="M4690 2435 c0 -3 2 -5 5 -5 3 0 5 2 5 5 0 3 -2 5 -5 5 -3 0 -5 -2 -5 -5z"/>
 <path d="M4660 2415 c0 -3 2 -5 5 -5 3 0 5 2 5 5 0 3 -2 5 -5 5 -3 0 -5 -2 -5 -5z"/>
 <path d="M4680 2415 c0 -3 2 -5 5 -5 3 0 5 2 5 5 0 3 -2 5 -5 5 -3 0 -5 -2 -5 -5z"/>
 <path d="M4520 2405 c0 -3 2 -5 5 -5 3 0 5 2 5 5 0 3 -2 5 -5 5 -3 0 -5 -2 -5 -5z"/>
 <path d="M14160 2380 c0 -7 3 -10 7 -7 3 4 3 10 0 14 -4 3 -7 0 -7 -7z"/>
 <path d="M14140 2370 c0 -7 3 -10 7 -7 3 4 3 10 0 14 -4 3 -7 0 -7 -7z"/>
 <path d="M14360 2355 c0 -3 2 -5 5 -5 3 0 5 2 5 5 0 3 -2 5 -5 5 -3 0 -5 -2 -5 -5z"/>
 <path d="M14330 2330 c0 -7 3 -10 7 -7 3 4 3 10 0 14 -4 3 -7 0 -7 -7z"/>
 <path d="M14170 2320 c0 -7 3 -10 7 -7 3 4 3 10 0 14 -4 3 -7 0 -7 -7z"/>
 <path d="M14350 2320 c0 -7 3 -10 7 -7 3 4 3 10 0 14 -4 3 -7 0 -7 -7z"/>
 <path d="M14035 2290 c3 -5 8 -10 11 -10 3 0 2 5 -1 10 -3 6 -8 10 -11 10 -3 0 -2 -4 1 -10z"/>
 <path d="M14160 2260 c0 -7 3 -10 7 -7 3 4 3 10 0 14 -4 3 -7 0 -7 -7z"/>
 <path d="M14330 2260 c0 -7 3 -10 7 -7 3 4 3 10 0 14 -4 3 -7 0 -7 -7z"/>
 <path d="M14300 2235 c0 -3 2 -5 5 -5 3 0 5 2 5 5 0 3 -2 5 -5 5 -3 0 -5 -2 -5 -5z"/>
 <path d="M14320 2225 c0 -3 2 -5 5 -5 3 0 5 2 5 5 0 3 -2 5 -5 5 -3 0 -5 -2 -5 -5z"/>
 <path d="M14170 2190 c0 -7 3 -10 7 -7 3 4 3 10 0 14 -4 3 -7 0 -7 -7z"/>
 <path d="M14280 2180 c0 -7 3 -10 7 -7 3 4 3 10 0 14 -4 3 -7 0 -7 -7z"/>
 <path d="M14180 2165 c0 -3 2 -5 5 -5 3 0 5 2 5 5 0 3 -2 5 -5 5 -3 0 -5 -2 -5 -5z"/>
 <path d="M10465 1910 c3 -5 8 -10 11 -10 3 0 2 5 -1 10 -3 6 -8 10 -11 10 -3 0 -2 -4 1 -10z"/>
 <path d="M1830 1875 c0 -3 2 -5 5 -5 3 0 5 2 5 5 0 3 -2 5 -5 5 -3 0 -5 -2 -5 -5z"/>
 <path d="M5660 1876 c0 -2 8 -10 18 -17 15 -13 16 -12 3 4 -13 16 -21 21 -21 13z"/>
 <path d="M1850 1865 c0 -3 2 -5 5 -5 3 0 5 2 5 5 0 3 -2 5 -5 5 -3 0 -5 -2 -5 -5z"/>
 <path d="M6060 1790 c0 -7 3 -10 7 -7 3 4 3 10 0 14 -4 3 -7 0 -7 -7z"/>
 <path d="M6040 1735 c0 -3 2 -5 5 -5 3 0 5 2 5 5 0 3 -2 5 -5 5 -3 0 -5 -2 -5 -5z"/>
 <path d="M6019 1703 c-13 -16 -12 -17 4 -4 9 7 17 15 17 17 0 8 -8 3 -21 -13z"/>
 </g>

</svg>